<?xml version="1.0" encoding="iso-8859-1"?><svg viewBox="0 0 1024 1024" xmlns="http://www.w3.org/2000/svg" xmlns:xlink="http://www.w3.org/1999/xlink"><style>:root>svg{display:none}:root>svg:target{display:block}</style><svg viewBox="0 0 512 512" id="admin-logo" xmlns="http://www.w3.org/2000/svg"><circle cx="256" cy="256" r="256" fill="#d2f0ff"/><path d="M105.551 379.588l131.727 131.727c6.183.447 12.425.685 18.722.685 126.603 0 231.724-91.907 252.325-212.637L304.473 95.511l-198.922 34.9v249.177z" fill="#73c8f0"/><g fill="#1e73be"><path d="M406.449 274.937v-39.874h-22.707a66.08 66.08 0 00-4.51-10.843l16.07-16.07-28.195-28.195-16.07 16.07a66.131 66.131 0 00-10.843-4.51v-22.707h-19.236v52.786c18.134.374 32.722 15.181 32.722 33.405s-14.588 33.031-32.722 33.405v52.786h19.236v-22.707a66.08 66.08 0 0010.843-4.51l16.07 16.07 28.195-28.195-16.07-16.07a66.131 66.131 0 004.51-10.843h22.707v.002z"/><path d="M320.959 236.631v36.738c9.837-.371 17.703-8.441 17.703-18.369 0-9.928-7.866-17.998-17.703-18.369zM304.473 414.489l-198.922-34.901V130.412l198.922-34.901z"/></g><path d="M191.468 197.086h19.903l44.047 115.827h-23.165l-10.767-28.875h-40.458l-10.604 28.875h-23.165l44.209-115.827zm25.94 71.128l-15.987-45.515-16.64 45.515h32.627z" fill="#fff"/></svg><svg fill="none" stroke="currentColor" stroke-width="2" stroke-linecap="round" stroke-linejoin="round" class="abfeather abfeather-info" viewBox="0 0 24 24" id="alert" xmlns="http://www.w3.org/2000/svg"><circle cx="12" cy="12" r="10"/><path d="M12 16v-4M12 8h.01"/></svg><svg fill="none" stroke="currentColor" stroke-width="2" stroke-linecap="round" stroke-linejoin="round" class="acfeather acfeather-file-text" viewBox="0 0 24 24" id="appl" xmlns="http://www.w3.org/2000/svg"><path d="M14 2H6a2 2 0 00-2 2v16a2 2 0 002 2h12a2 2 0 002-2V8z"/><path d="M14 2v6h6M16 13H8M16 17H8M10 9H8"/></svg><svg fill="none" stroke-width="2" stroke-linecap="round" stroke-linejoin="round" class="adfeather adfeather-arrow-left" viewBox="0 0 24 24" id="ar-left" xmlns="http://www.w3.org/2000/svg"><path d="M19 12H5M12 19l-7-7 7-7"/></svg><svg fill="none" stroke="currentColor" stroke-width="2" stroke-linecap="round" stroke-linejoin="round" class="aefeather aefeather-chevron-down" viewBox="0 0 24 24" id="arrow-down" xmlns="http://www.w3.org/2000/svg"><path d="M6 9l6 6 6-6"/></svg><svg fill="none" stroke="currentColor" stroke-width="2" stroke-linecap="round" stroke-linejoin="round" class="affeather affeather-chevron-right" viewBox="0 0 24 24" id="arrow-right" xmlns="http://www.w3.org/2000/svg"><path d="M9 18l6-6-6-6"/></svg><svg fill="none" stroke="currentColor" stroke-width="2" stroke-linecap="round" stroke-linejoin="round" class="agfeather agfeather-square" viewBox="0 0 24 24" id="block" xmlns="http://www.w3.org/2000/svg"><rect x="3" y="3" width="18" height="18" rx="2" ry="2"/></svg><svg fill="none" stroke-width="2" stroke-linecap="round" stroke-linejoin="round" class="ahfeather ahfeather-check" viewBox="0 0 24 24" id="check" xmlns="http://www.w3.org/2000/svg"><path d="M20 6L9 17l-5-5"/></svg><svg fill="none" stroke-width="2" stroke-linecap="round" stroke-linejoin="round" viewBox="0 0 24 24" id="close" xmlns="http://www.w3.org/2000/svg"><circle cx="12" cy="12" r="10"/><path d="M15 9l-6 6M9 9l6 6"/></svg><svg fill="none" stroke-width="2" stroke-linecap="round" stroke-linejoin="round" class="ajfeather ajfeather-x" viewBox="0 0 24 24" id="delete" xmlns="http://www.w3.org/2000/svg"><path d="M18 6L6 18M6 6l12 12"/></svg><svg fill="none" stroke-width="2" stroke-linecap="round" stroke-linejoin="round" class="akfeather akfeather-edit" viewBox="0 0 24 24" id="edit" xmlns="http://www.w3.org/2000/svg"><path d="M11 4H4a2 2 0 00-2 2v14a2 2 0 002 2h14a2 2 0 002-2v-7"/><path d="M18.5 2.5a2.121 2.121 0 013 3L12 15l-4 1 1-4 9.5-9.5z"/></svg><svg fill="none" stroke-width="2" stroke-linecap="round" stroke-linejoin="round" class="alfeather alfeather-file-minus alicon-dual" viewBox="0 0 24 24" id="export" xmlns="http://www.w3.org/2000/svg"><path d="M14 2H6a2 2 0 00-2 2v16a2 2 0 002 2h12a2 2 0 002-2V8z"/><path d="M14 2v6h6M9 15h6"/></svg><svg fill="none" stroke-width="2" stroke-linecap="round" stroke-linejoin="round" class="amfeather amfeather-grid" viewBox="0 0 24 24" id="grid" xmlns="http://www.w3.org/2000/svg"><path d="M3 3h7v7H3zM14 3h7v7h-7zM14 14h7v7h-7zM3 14h7v7H3z"/></svg><svg viewBox="0 0 24 24" fill="none" stroke="currentColor" stroke-width="2" stroke-linecap="round" stroke-linejoin="round" class="anfeather anfeather-home" id="home" xmlns="http://www.w3.org/2000/svg"><path d="M3 9l9-7 9 7v11a2 2 0 01-2 2H5a2 2 0 01-2-2z"/><path d="M9 22V12h6v10"/></svg><svg fill="none" stroke-width="2" stroke-linecap="round" stroke-linejoin="round" class="aofeather aofeather-file-plus aoicon-dual" viewBox="0 0 24 24" id="import" xmlns="http://www.w3.org/2000/svg"><path d="M14 2H6a2 2 0 00-2 2v16a2 2 0 002 2h12a2 2 0 002-2V8z"/><path d="M14 2v6h6M12 18v-6M9 15h6"/></svg><svg viewBox="0 0 24 24" fill="none" stroke="currentColor" stroke-width="2" stroke-linecap="round" stroke-linejoin="round" class="apfeather apfeather-globe" id="lang" xmlns="http://www.w3.org/2000/svg"><circle cx="12" cy="12" r="10"/><path d="M2 12h20M12 2a15.3 15.3 0 014 10 15.3 15.3 0 01-4 10 15.3 15.3 0 01-4-10 15.3 15.3 0 014-10z"/></svg><svg fill="none" stroke="currentColor" stroke-width="2" stroke-linecap="round" stroke-linejoin="round" class="aqfeather aqfeather-user-plus" viewBox="0 0 24 24" id="leads" xmlns="http://www.w3.org/2000/svg"><path d="M16 21v-2a4 4 0 00-4-4H5a4 4 0 00-4 4v2"/><circle cx="8.5" cy="7" r="4"/><path d="M20 8v6M23 11h-6"/></svg><svg fill="none" stroke-width="2" stroke-linecap="round" stroke-linejoin="round" class="arfeather arfeather-list" viewBox="0 0 24 24" id="list" xmlns="http://www.w3.org/2000/svg"><path d="M8 6h13M8 12h13M8 18h13M3 6h.01M3 12h.01M3 18h.01"/></svg><svg viewBox="0 0 1024 1024" id="mobi" xmlns="http://www.w3.org/2000/svg"><path d="M806.5 320.4l-50.1-10.2c-56.8-9.1-143.1-18-238.4-18-168.8 0-299.1 28.3-310.7 31-28.3 5.2-59.3 27.1-73.5 52.9-6.4 10.3-34.7 58-34.7 135.3 0 78.7 29.7 126.4 34.7 135.3 14.2 24.5 46.5 47.7 72.1 52.9 5.2 1.3 139.2 32.2 310.7 32.2 82.5 0 157.2-6.4 211.4-14.2l54-9.2c25.8-3.9 42.6-7.7 46.5-9.1 29.7-5.2 59.3-29.7 70.9-58 5.2-9.1 25.8-54.1 25.8-128.9 0-75.9-21.9-121-25.8-130-11.6-28.3-41.3-52.9-70.9-58-1.4-.1-9.2-2.6-22-4v-2.5M854.2 617c0 1.3-1.3 2.5-1.3 2.5-5.2 11.6-21.9 25.8-33.5 28.3h-1.3c-1.3 0-132.8 29.7-299.1 29.7s-297.7-29.7-300.4-31c-12.8-2.5-32.2-16.7-38.6-28.3l-1.3-1.3s-25.8-38.6-25.8-107c0-67 25.8-105.7 25.8-107s1.3-1.3 1.3-2.5c6.4-12.8 24.5-25.8 38.6-28.3h1.3c1.3 0 132.8-29.7 300.4-29.7 166.3 0 297.7 29.7 300.4 31 12.8 2.5 29.7 15.5 33.5 27.1 0 1.3 1.3 2.5 1.3 3.9 0 0 20.6 37.4 20.6 105.7 0 68.1-21.9 106.9-21.9 106.9z"/><path d="M355.6 534.2l-23.1-87.4h-38.8v128h24.1V474.1l25.3 100.7H368l25.4-100.7v100.7h23.9v-128h-38.7zM499.7 444.7c-10.4 0-19.6 1.6-27.6 5-6 2.5-11.5 6.3-16.5 11.6-5 5.2-9.1 11.1-12 17.5-3.9 8.8-5.8 19.8-5.8 32.9 0 20.4 5.7 36.4 16.9 48 11.2 11.6 26.3 17.4 45.4 17.4 18.8 0 33.9-5.8 45.1-17.5 11.2-11.7 16.9-27.8 16.9-48.5 0-20.8-5.7-37.1-17-48.8-11.4-11.9-26.6-17.6-45.4-17.6zm25.6 99c-6.5 7.4-15.1 11.1-25.3 11.1s-18.8-3.8-25.4-11.2c-6.7-7.4-10.1-18.5-10.1-33 0-14.7 3.3-25.7 9.8-33 6.5-7.3 15.1-11 25.8-11s19.1 3.7 25.7 10.8c6.4 7.2 9.7 18.1 9.7 32.9-.3 14.9-3.6 26-10.2 33.4zM665.1 506.8c5.5-2.5 9.9-6.3 13.1-11.2 3.3-5 4.8-10.4 4.8-16.5 0-5.5-1.3-10.6-3.9-15s-5.9-8.1-9.8-10.7c-3.9-2.6-8.4-4.4-13.3-5.3-5-.9-12.5-1.3-22.7-1.3h-51.1v127.9h43.6c16.5-.1 26.8-.4 31.2-.9 6.9-.8 12.6-2.8 17.4-6 4.7-3.3 8.4-7.7 11.1-13.2 2.8-5.5 4-11.2 4-17 0-7.4-2.1-13.8-6.3-19.3-4.3-5.3-10.3-9.2-18.1-11.5zm-57-38.7H623c12.2 0 19.5.1 22 .4 4.3.5 7.6 2 9.7 4.5 2.1 2.5 3.3 5.7 3.3 9.7 0 4.2-1.3 7.4-3.8 9.9s-6 4-10.4 4.5c-2.4.3-8.7.4-18.8.4h-17V468h.1zm50.9 79.3c-2.4 2.6-5.5 4.4-9.4 5.2-2.5.5-8.4.8-17.8.8h-23.9V519h20.9c11.7 0 19.4.6 22.9 1.9 3.5 1.3 6.2 3.1 8.1 5.8 1.9 2.6 2.8 5.9 2.8 9.8.1 4.5-1.2 8.1-3.6 10.9zM710.4 446.8h25.8v127.9h-25.8z"/></svg><svg fill="none" stroke="currentColor" stroke-width="2" stroke-linecap="round" stroke-linejoin="round" class="atfeather atfeather-codesandbox" viewBox="0 0 24 24" id="module" xmlns="http://www.w3.org/2000/svg"><path d="M21 16V8a2 2 0 00-1-1.73l-7-4a2 2 0 00-2 0l-7 4A2 2 0 003 8v8a2 2 0 001 1.73l7 4a2 2 0 002 0l7-4A2 2 0 0021 16z"/><path d="M7.5 4.21l4.5 2.6 4.5-2.6M7.5 19.79V14.6L3 12M21 12l-4.5 2.6v5.19M3.27 6.96L12 12.01l8.73-5.05M12 22.08V12"/></svg><svg fill="none" stroke="currentColor" stroke-width="2" stroke-linecap="round" stroke-linejoin="round" class="aufeather aufeather-log-out auicon-dual auicon-xs aumr-2" viewBox="0 0 24 24" id="out" xmlns="http://www.w3.org/2000/svg"><path d="M9 21H5a2 2 0 01-2-2V5a2 2 0 012-2h4M16 17l5-5-5-5M21 12H9"/></svg><svg fill="none" stroke="currentColor" stroke-width="2" stroke-linecap="round" stroke-linejoin="round" class="avfeather avfeather-lock avicon-dual" viewBox="0 0 24 24" id="pass" xmlns="http://www.w3.org/2000/svg"><rect x="3" y="11" width="18" height="11" rx="2" ry="2"/><path d="M7 11V7a5 5 0 0110 0v4"/></svg><svg viewBox="0 0 24 24" stroke="currentColor" stroke-width="2" id="plus" xmlns="http://www.w3.org/2000/svg"><path d="M12 5v14M5 12h14"/></svg><svg fill="none" stroke="currentColor" stroke-width="2" stroke-linecap="round" stroke-linejoin="round" class="axfeather axfeather-save" viewBox="0 0 24 24" id="save" xmlns="http://www.w3.org/2000/svg"><path d="M19 21H5a2 2 0 01-2-2V5a2 2 0 012-2h11l5 5v11a2 2 0 01-2 2z"/><path d="M17 21v-8H7v8M7 3v5h8"/></svg><svg viewBox="0 0 24 24" fill="none" stroke="currentColor" stroke-width="2" stroke-linecap="round" stroke-linejoin="round" class="ayfeather ayfeather-settings" id="settings" xmlns="http://www.w3.org/2000/svg"><circle cx="12" cy="12" r="3"/><path d="M19.4 15a1.65 1.65 0 00.33 1.82l.06.06a2 2 0 010 2.83 2 2 0 01-2.83 0l-.06-.06a1.65 1.65 0 00-1.82-.33 1.65 1.65 0 00-1 1.51V21a2 2 0 01-2 2 2 2 0 01-2-2v-.09A1.65 1.65 0 009 19.4a1.65 1.65 0 00-1.82.33l-.06.06a2 2 0 01-2.83 0 2 2 0 010-2.83l.06-.06a1.65 1.65 0 00.33-1.82 1.65 1.65 0 00-1.51-1H3a2 2 0 01-2-2 2 2 0 012-2h.09A1.65 1.65 0 004.6 9a1.65 1.65 0 00-.33-1.82l-.06-.06a2 2 0 010-2.83 2 2 0 012.83 0l.06.06a1.65 1.65 0 001.82.33H9a1.65 1.65 0 001-1.51V3a2 2 0 012-2 2 2 0 012 2v.09a1.65 1.65 0 001 1.51 1.65 1.65 0 001.82-.33l.06-.06a2 2 0 012.83 0 2 2 0 010 2.83l-.06.06a1.65 1.65 0 00-.33 1.82V9a1.65 1.65 0 001.51 1H21a2 2 0 012 2 2 2 0 01-2 2h-.09a1.65 1.65 0 00-1.51 1z"/></svg><svg fill="none" stroke="currentColor" stroke-width="2" stroke-linecap="round" stroke-linejoin="round" class="azfeather azfeather-shopping-cart azicon-dual" viewBox="0 0 24 24" id="shop" xmlns="http://www.w3.org/2000/svg"><circle cx="9" cy="21" r="1"/><circle cx="20" cy="21" r="1"/><path d="M1 1h4l2.68 13.39a2 2 0 002 1.61h9.72a2 2 0 002-1.61L23 6H6"/></svg><svg fill="none" stroke="currentColor" stroke-width="2" stroke-linecap="round" stroke-linejoin="round" class="bafeather bafeather-sliders" viewBox="0 0 24 24" id="sort" xmlns="http://www.w3.org/2000/svg"><path d="M4 21v-7M4 10V3M12 21v-9M12 8V3M20 21v-5M20 12V3M1 14h6M9 8h6M17 16h6"/></svg><svg fill="none" stroke="currentColor" stroke-width="2" stroke-linecap="round" stroke-linejoin="round" class="bbfeather bbfeather-help-circle bbicon-dual bbicon-xs bbmr-2" viewBox="0 0 24 24" id="support" xmlns="http://www.w3.org/2000/svg"><circle cx="12" cy="12" r="10"/><path d="M9.09 9a3 3 0 015.83 1c0 2-3 3-3 3M12 17h.01"/></svg><svg fill="none" stroke="currentColor" stroke-width="2" stroke-linecap="round" stroke-linejoin="round" class="bcfeather bcfeather-upload" viewBox="0 0 24 24" id="upload" xmlns="http://www.w3.org/2000/svg"><path d="M21 15v4a2 2 0 01-2 2H5a2 2 0 01-2-2v-4M17 8l-5-5-5 5M12 3v12"/></svg><svg fill="none" stroke="currentColor" stroke-width="2" stroke-linecap="round" stroke-linejoin="round" class="bdfeather bdfeather-user" viewBox="0 0 24 24" id="user" xmlns="http://www.w3.org/2000/svg"><path d="M20 21v-2a4 4 0 00-4-4H8a4 4 0 00-4 4v2"/><circle cx="12" cy="7" r="4"/></svg><svg viewBox="0 0 1024 1024" id="webp" xmlns="http://www.w3.org/2000/svg"><path d="M806.5 320.3l-50.1-10.2c-56.8-9.1-143.1-18-238.4-18-168.8 0-299.1 28.3-310.7 31-28.3 5.2-59.3 27.1-73.5 52.9-6.5 10.2-34.8 58-34.8 135.3 0 78.7 29.7 126.4 34.7 135.3 14.2 24.5 46.5 47.7 72.1 52.9 5.2 1.3 139.2 32.2 310.7 32.2 82.5 0 157.2-6.4 211.4-14.2l54-9.2c25.8-3.9 42.6-7.7 46.5-9.1 29.7-5.2 59.3-29.7 70.9-58 5.2-9.1 25.8-54.1 25.8-128.9 0-75.9-21.9-121-25.8-130-11.6-28.3-41.3-52.9-70.9-58-1.3-.1-9.1-2.6-21.9-4v-2.5m47.7 299.1c0 1.3-1.3 2.5-1.3 2.5-5.2 11.6-21.9 25.8-33.5 28.3h-1.3c-1.3 0-132.8 29.7-299.1 29.7s-297.7-29.7-300.4-31c-12.8-2.5-32.2-16.7-38.6-28.3l-1.3-1.3s-25.8-38.6-25.8-107c0-67 25.8-105.7 25.8-107s1.3-1.3 1.3-2.5c6.4-12.8 24.5-25.8 38.6-28.3h1.3c1.3 0 132.8-29.7 300.4-29.7 166.3 0 297.7 29.7 300.4 31 12.8 2.5 29.7 15.5 33.5 27.1 0 1.3 1.3 2.5 1.3 3.9 0 0 20.6 37.4 20.6 105.7 0 68.1-21.9 106.9-21.9 106.9z"/><path d="M652.4 519.7c-3.9-5.2-10.5-9.1-18.3-11.8 5.2-2.6 10.5-6.5 13.1-11.8s5.2-10.5 5.2-17c0-5.2-1.3-10.5-3.9-15.7-2.6-3.9-6.5-7.8-10.5-10.5-3.9-2.6-9.1-3.9-13.1-5.2-5.2-1.3-13.1-1.3-23.5-1.3h-52.3V577h44.4c17 0 27.4 0 31.4-1.3 6.5-1.3 13.1-2.6 18.3-6.5s9.1-7.8 11.8-13.1c2.6-5.2 3.9-11.8 3.9-17 .1-7.6-2.5-14.2-6.5-19.4zm-77-52.2h37.9c3.9 0 7.8 2.6 10.5 5.2 2.6 2.6 3.9 5.2 3.9 10.5 0 3.9-1.3 7.8-3.9 10.5-2.6 2.6-6.5 3.9-10.5 5.2h-37.9v-31.4zm52.2 81c-2.6 2.6-5.2 3.9-9.1 5.2-2.6 0-9.1 1.3-18.3 1.3h-24.8v-35.3h20.9c11.8 0 19.6 0 23.5 1.3 3.9 1.3 6.5 2.6 7.8 6.5 1.3 2.6 2.6 6.5 2.6 10.5 1.3 5.2 0 7.8-2.6 10.5zM387.2 446.6h26.2L382 577.2h-27.4l-26.1-98-26.2 98h-28.7l-31.4-130.6h27.5l19.6 90.1 23.5-90.1h31.3l23.5 91.4 19.6-91.4zM453.9 555H527v22.2h-99.3V446.6h96.7v22.2h-70.5v28.7h65.3v22.2h-65.3V555zM773.9 459.6c-5.2-5.2-10.5-9.1-18.3-11.8-5.2-1.3-15.7-1.3-31.4-1.3h-41.8v130.6h26.1v-49.6h17c11.8 0 20.9 0 27.4-1.3 5.2-1.3 9.1-2.6 13.1-6.5 3.9-2.6 7.8-7.8 11.8-13.1 2.6-5.2 3.9-11.8 3.9-20.9.1-10.4-2.6-18.2-7.8-26.1zm-22.2 37.9c-2.6 2.6-5.2 5.2-7.8 6.5-3.9 1.3-10.5 2.6-20.9 2.6h-14.4V470h13.1c9.1 0 15.7 0 19.6 1.3s7.8 2.6 10.5 5.2c2.6 2.6 3.9 6.5 3.9 11.8-1.4 2.7-2.7 5.3-4 9.2z"/></svg></svg>