<?xml version="1.0" standalone="no"?>
<!DOCTYPE svg PUBLIC "-//W3C//DTD SVG 20010904//EN"
 "http://www.w3.org/TR/2001/REC-SVG-20010904/DTD/svg10.dtd">
<svg version="1.0" xmlns="http://www.w3.org/2000/svg"
 width="1080.000000pt" height="1080.000000pt" viewBox="0 0 1080.000000 1080.000000"
 preserveAspectRatio="xMidYMid meet">
<metadata>
Created by potrace 1.14, written by Peter Selinger 2001-2017
</metadata>
<g transform="translate(0.000000,1080.000000) scale(0.100000,-0.100000)"
fill="#000000" stroke="none">
<path d="M0 5400 l0 -5400 5400 0 5400 0 0 5400 0 5400 -5400 0 -5400 0 0
-5400z m4400 2900 l0 -660 180 0 180 0 0 220 0 220 220 0 220 0 0 209 c0 115
3 216 6 225 5 14 37 16 249 16 212 0 244 -2 249 -16 3 -9 6 -110 6 -225 l0
-209 220 0 220 0 0 -220 0 -220 180 0 180 0 0 660 0 660 255 0 255 0 2 -437 3
-438 215 -5 215 -5 3 -450 c1 -247 0 -460 -3 -472 -5 -23 -6 -23 -220 -23
l-215 0 2 -182 3 -183 429 -3 c329 -2 432 -5 438 -15 9 -14 11 -458 2 -481 -5
-14 -34 -16 -220 -16 l-214 0 -2 -217 -3 -218 -215 -5 -215 -5 -3 -165 c-1
-91 0 -175 3 -187 5 -23 6 -23 220 -23 l215 0 0 -215 0 -215 214 0 c186 0 215
-2 220 -16 3 -9 6 -110 6 -225 l0 -209 155 0 155 0 0 -250 0 -250 -155 0 -155
0 0 -190 0 -190 155 0 155 0 0 -250 0 -250 -155 0 -155 0 0 -213 c0 -152 -3
-216 -12 -225 -13 -13 -451 -18 -482 -6 -14 5 -16 35 -16 225 l0 219 -215 0
-215 0 0 250 0 250 215 0 215 0 0 190 0 190 -215 0 -215 0 0 215 0 215 -190 0
-190 0 0 -215 0 -215 -215 0 -215 0 0 -190 0 -190 215 0 215 0 2 -657 3 -658
218 -3 217 -2 0 -249 c0 -218 -2 -250 -16 -255 -20 -8 -458 -8 -478 0 -14 5
-16 35 -16 225 l0 219 -215 0 -215 0 0 215 0 215 -207 0 c-115 0 -214 4 -220
8 -9 6 -13 66 -15 222 l-3 215 -180 0 -180 0 -3 -215 c-2 -156 -6 -216 -15
-222 -6 -4 -105 -8 -219 -8 l-208 0 0 -215 0 -215 -215 0 -215 0 0 -219 c0
-190 -2 -220 -16 -225 -20 -8 -458 -8 -478 0 -14 5 -16 37 -16 255 l0 249 218
2 217 3 3 658 2 657 215 0 215 0 0 190 0 190 -215 0 -215 0 0 215 0 215 -185
0 -185 0 0 -215 0 -215 -220 0 -220 0 0 -190 0 -190 218 -2 217 -3 3 -248 2
-247 -220 0 -220 0 0 -219 c0 -190 -2 -220 -16 -225 -20 -8 -458 -8 -478 0
-14 5 -16 35 -16 225 l0 219 -215 0 -215 0 0 250 0 250 215 0 215 0 0 190 0
190 -215 0 -215 0 0 250 0 250 215 0 215 0 0 225 0 225 220 0 220 0 0 215 0
215 215 0 c214 0 215 0 220 23 3 12 4 96 3 187 l-3 165 -215 5 -215 5 -5 215
-5 215 -217 3 -218 2 0 255 0 255 438 2 437 3 3 182 2 183 -217 2 -218 3 -3
472 -2 473 217 2 218 3 3 438 2 437 255 0 255 0 0 -660z"/>
<path d="M4400 6945 l0 -185 180 0 180 0 0 185 0 185 -180 0 -180 0 0 -185z"/>
<path d="M6150 6945 l0 -185 180 0 180 0 0 185 0 185 -180 0 -180 0 0 -185z"/>
<path d="M4400 6065 l0 -185 215 0 215 0 0 -219 c0 -190 2 -220 16 -225 20 -8
1198 -8 1218 0 14 5 16 35 16 225 l0 219 215 0 215 0 0 185 0 185 -1055 0
-1055 0 0 -185z"/>
</g>
</svg>
