<?xml version="1.0" encoding="utf-8"?><svg viewBox="0 0 133 133" xmlns="http://www.w3.org/2000/svg" xmlns:xlink="http://www.w3.org/1999/xlink"><style>:root>svg{display:none}:root>svg:target{display:block}</style><svg fill="none" viewBox="0 0 32 33" id="arrow-up" xmlns="http://www.w3.org/2000/svg"><path d="M18.195 7.776v24.522h-4.03V7.776L3.356 18.582.507 15.734 16.18.064l15.672 15.67-2.85 2.848L18.196 7.776z" fill="url(#apaint0_linear_105_64)"/><defs><linearGradient id="apaint0_linear_105_64" x1="31.852" y1=".064" x2="-.369" y2="31.396" gradientUnits="userSpaceOnUse"><stop stop-color="#3B1AA7"/><stop offset=".305" stop-color="#4E31B3"/><stop offset=".643" stop-color="#9636EF"/><stop offset="1" stop-color="#F682BD"/></linearGradient></defs></svg><svg fill="none" viewBox="0 0 97 62" id="bit" xmlns="http://www.w3.org/2000/svg"><path fill-rule="evenodd" clip-rule="evenodd" d="M54.4 4.516c1.106-.607 2.189-1.951 1.282-3.195-.87-1.182-2.602-.976-3.735-.36-1.008.546-1.984 1.63-1.376 2.826.101.2.226.37.37.514-1.85 2.513-3.702 5.026-5.568 7.53a.718.718 0 00-.15.443c-.746-.045-1.494-.085-2.242-.12-.44-.02-.923-.06-1.428-.103-1.694-.143-3.638-.306-5.081.21-.862.314-1.241.803-1.779 1.496-.091.118-.187.241-.29.37-.673.847-1.352 1.686-2.037 2.522a4911.938 4911.938 0 01-5.022-.564l-.008-.001h-.006v-.001l-4.439-.498a2.087 2.087 0 00-.084-.499c-.38-1.316-1.84-1.409-2.963-1.078-1.258.376-2.547 1.461-2.395 2.898.162 1.609 1.953 1.745 3.184 1.375a3.85 3.85 0 00.106-.034l.015-.006a.839.839 0 00.09-.037c.604-.262 1.204-.69 1.597-1.23 1.53.17 3.062.342 4.595.514l.01.001.008.001h.001c1.41.159 2.82.318 4.227.475-1.04 1.255-2.087 2.503-3.134 3.75l-.001.002h-.001l-.458.546-.368.438-.368.44a.791.791 0 00-.172-.039c-1.653-.184-3.31-.37-4.969-.557h-.002l-4.45-.499a2.094 2.094 0 00-.085-.5c-.38-1.316-1.84-1.408-2.963-1.077-1.258.375-2.547 1.46-2.394 2.897.161 1.609 1.952 1.746 3.183 1.375a3.85 3.85 0 00.106-.034l.015-.005a.812.812 0 00.09-.038c.604-.262 1.204-.689 1.597-1.23 1.535.171 3.073.344 4.612.517h.005c1.448.163 2.895.326 4.34.487-1.8 2.15-3.591 4.306-5.343 6.494a.728.728 0 00-.256-.075l-4.969-.556h-.001l-4.451-.5a2.094 2.094 0 00-.084-.5c-.38-1.315-1.84-1.408-2.964-1.077-1.258.375-2.547 1.46-2.394 2.897.162 1.61 1.953 1.746 3.184 1.375.035-.01.07-.022.105-.034l.016-.005a.815.815 0 00.09-.038c.604-.262 1.203-.689 1.596-1.23 1.534.171 3.072.344 4.61.517h.003c1.501.169 3.002.338 4.5.505a155.76 155.76 0 00-4.429 5.876 4910.326 4910.326 0 01-5.014-.563h-.005l-.006-.001-4.428-.497a2.092 2.092 0 00-.084-.505c-.38-1.316-1.84-1.409-2.964-1.078-1.258.376-2.546 1.46-2.394 2.898.162 1.608 1.953 1.745 3.184 1.374.035-.01.07-.022.106-.034l.015-.005a.834.834 0 00.09-.037c.602-.262 1.2-.687 1.592-1.225 1.528.17 3.06.342 4.591.514h.003l.005.001h.005c1.456.165 2.913.328 4.366.49-.115.165-.229.33-.342.496-.148.122-.238.312-.21.567l.059.587c.223 2.226.517 5.158 1.86 6.85.821 1.028 1.717 1.07 2.871 1.124l.427.021c.467.027.935.052 1.402.076-1.724 2.342-3.45 4.684-5.189 7.02-.662-.092-1.382.041-1.977.32a.828.828 0 00-.075.04.814.814 0 00-.103.05l.013-.005c-1.106.607-2.19 1.951-1.283 3.195.87 1.182 2.602.976 3.735.36 1.008-.546 1.984-1.63 1.377-2.826-.102-.2-.227-.37-.37-.514a1591.93 1591.93 0 015.587-7.56c2.875.127 5.754.205 8.634.27-1.686 2.29-3.374 4.58-5.075 6.863-.662-.091-1.382.042-1.977.32a.87.87 0 00-.075.041.834.834 0 00-.103.049l.013-.005c-1.106.608-2.19 1.952-1.283 3.196.871 1.182 2.602.976 3.735.36 1.008-.546 1.985-1.63 1.377-2.826-.102-.2-.227-.37-.37-.514 1.829-2.485 3.659-4.97 5.504-7.446l1.477.03h.008l.013.001h.038a1612.328 1612.328 0 017.632.175c-1.6 2.173-3.203 4.346-4.817 6.512-.66-.089-1.377.045-1.969.322a.853.853 0 00-.074.04.828.828 0 00-.104.05l.013-.005c-1.106.608-2.19 1.952-1.282 3.196.87 1.182 2.601.976 3.734.359 1.008-.545 1.985-1.63 1.377-2.825a2.044 2.044 0 00-.375-.52c1.741-2.366 3.483-4.731 5.239-7.09 1.655.037 3.31.073 4.967.108h.022l.003.001h.027l3.528.077c-1.818 2.47-3.637 4.94-5.47 7.402-.663-.091-1.384.043-1.978.32a.803.803 0 00-.075.041.842.842 0 00-.104.05l.014-.005c-1.107.607-2.19 1.951-1.283 3.196.87 1.181 2.602.975 3.735.358 1.008-.544 1.984-1.63 1.376-2.825-.101-.2-.226-.37-.37-.514 1.85-2.513 3.701-5.026 5.568-7.53a.716.716 0 00.148-.459c1.407.032 2.815.064 4.223.099.24.007.48.022.722.036.911.055 1.829.11 2.682-.221 1.024-.396 2.011-1.2 2.927-2.083 1.579.175 3.162.353 4.745.531l4.451.5c.008.162.035.329.085.5.38 1.316 1.839 1.408 2.963 1.077 1.258-.375 2.547-1.46 2.394-2.897-.161-1.609-1.952-1.746-3.183-1.375-.036.01-.071.022-.106.034l-.016.005a.834.834 0 00-.089.038c-.604.262-1.204.689-1.597 1.23-1.528-.17-3.06-.343-4.593-.515l-.01-.001-.009-.001-3.767-.423.157-.166c.32-.338.625-.661.915-.951a171.953 171.953 0 003.602-3.724.8.8 0 00.147.03l4.969.558 4.449.498c.008.159.035.321.084.487.38 1.316 1.839 1.409 2.963 1.078 1.258-.376 2.547-1.461 2.394-2.898-.161-1.608-1.953-1.745-3.183-1.374a3.54 3.54 0 00-.106.033l-.016.006a.83.83 0 00-.089.037c-.609.265-1.213.696-1.606 1.243l-4.6-.516h-.008v-.001h-.002c-1.399-.157-2.797-.315-4.194-.47a331.594 331.594 0 005.74-6.398c1.556.173 3.116.348 4.675.524 1.485.167 2.97.334 4.453.499.007.162.034.329.084.5.38 1.316 1.839 1.408 2.963 1.077 1.258-.375 2.547-1.46 2.394-2.897-.161-1.609-1.952-1.746-3.183-1.375a2.765 2.765 0 00-.106.034l-.016.005a.834.834 0 00-.089.038c-.604.262-1.204.689-1.597 1.23-1.532-.17-3.068-.343-4.604-.516h-.009l-3.817-.43c.736-.842 1.47-1.686 2.204-2.53l.639-.733c.383-.442.828-.894 1.285-1.357h.001v-.001c.215-.218.432-.438.646-.66l4.177.468 4.453.5c.007.162.034.328.084.499.38 1.316 1.84 1.409 2.964 1.078 1.258-.376 2.546-1.461 2.394-2.898-.162-1.609-1.953-1.746-3.184-1.374a3.97 3.97 0 00-.106.033l-.015.005a.818.818 0 00-.09.038c-.604.262-1.204.69-1.597 1.23l-4.584-.513-.01-.001-.01-.002h-.008l-3.31-.372c.256-.326.485-.657.673-.995 1.18-2.12.17-5.591-.898-7.585-.99-1.857-3.624-2.158-6.03-2.267 1.911-2.598 3.823-5.195 5.751-7.784.663.091 1.383-.042 1.978-.32a.828.828 0 00.075-.041.828.828 0 00.103-.049l-.013.005c1.106-.608 2.19-1.952 1.283-3.196-.87-1.182-2.602-.976-3.735-.36-1.008.546-1.984 1.63-1.377 2.826.102.2.227.37.37.514-1.85 2.513-3.7 5.026-5.567 7.53a.722.722 0 00-.035.83 23.501 23.501 0 01-1.764-.11c-2.324-.266-4.648-.528-6.973-.78 1.726-2.346 3.454-4.691 5.196-7.03.662.092 1.383-.041 1.978-.32a.83.83 0 00.075-.04.835.835 0 00.103-.05l-.013.005c1.106-.607 2.19-1.951 1.283-3.196-.87-1.182-2.602-.975-3.735-.359-1.008.545-1.984 1.63-1.377 2.826.102.199.227.37.37.513a1602.25 1602.25 0 01-5.524 7.473 685.697 685.697 0 00-9.028-.91c1.815-2.466 3.631-4.931 5.462-7.39.662.092 1.383-.041 1.978-.32a.846.846 0 00.075-.04.833.833 0 00.103-.05l-.013.005c1.106-.607 2.19-1.951 1.283-3.196-.87-1.181-2.602-.975-3.735-.359-1.008.546-1.984 1.63-1.377 2.826.102.199.227.37.37.513-1.85 2.514-3.701 5.027-5.568 7.532a.735.735 0 00-.142.335c-.566-.051-1.133-.102-1.7-.151a332.03 332.03 0 00-6.994-.561c1.83-2.486 3.66-4.972 5.506-7.45.663.091 1.383-.042 1.978-.32a.825.825 0 00.075-.041.827.827 0 00.104-.049l-.014.004zm21.266 43.047l.013-.004-.013.004zm0 0c.415-.138 1.494-.424 1.4.32-.084.639-.864 1.019-1.404 1.184-.335.112-1.017.295-1.142-.169-.166-.629.7-1.156 1.145-1.335zm-12.162-1.09c1.393-1.243 2.71-2.8 3.856-4.153.585-.692 1.125-1.33 1.608-1.848 3.541-3.788 6.958-7.694 10.372-11.597l1.867-2.132.128-.146c.041-.3.254-.597.588-.671 1.203-1.395 1.866-2.44 1.386-4.78l-.02-.091c-.3-1.453-.53-2.566-1.341-3.222a.788.788 0 01-.086.137 288.887 288.887 0 01-22.529 25.766.83.83 0 01-.074.068.682.682 0 01-.041.08l.824 1.907.003.007c.344.796.688 1.592 1.035 2.39.733-.365 1.461-.885 2.17-1.494a.758.758 0 01.254-.222zm18.471-5.005h.002l.012-.005-.014.005zm0 0c.402-.134 1.495-.425 1.402.32-.085.638-.865 1.018-1.405 1.184-.335.111-1.017.295-1.142-.17-.166-.628.7-1.155 1.145-1.334zm6.506-7.738h.001l.012-.004-.013.004zm0 0c.401-.134 1.494-.424 1.4.32-.084.639-.864 1.019-1.404 1.184-.334.112-1.017.295-1.142-.169-.166-.629.7-1.156 1.146-1.335zm5.425-6.647h.001l.012-.005-.013.005zm0 0c.415-.139 1.494-.425 1.401.32-.084.638-.865 1.018-1.404 1.184-.335.111-1.018.295-1.143-.17-.165-.628.7-1.155 1.146-1.334zm-72.464-11.54c.165.628-.7 1.155-1.146 1.334-.415.139-1.494.425-1.401-.32.084-.638.865-1.018 1.405-1.183.334-.112 1.017-.296 1.142.168zm-1.146 1.334h-.001l-.012.005.013-.005zm-5.533 6.46c-.402.135-1.494.425-1.401-.32.084-.638.865-1.018 1.405-1.183.334-.112 1.017-.295 1.142.169.165.629-.7 1.156-1.146 1.334zm0 0l-.001.001-.012.004.013-.004zM8.25 31.094c-.416.139-1.495.425-1.402-.32.085-.639.865-1.019 1.405-1.184.335-.112 1.017-.295 1.143.169.165.629-.7 1.156-1.146 1.335zm0 0h-.002l-.012.004.013-.004zm-4.074 5.884c.165.629-.7 1.156-1.146 1.335-.415.138-1.495.425-1.401-.32.084-.639.865-1.018 1.404-1.184.335-.112 1.017-.295 1.143.169zM3.03 38.312h-.001l-.012.004.013-.004zM54.41 2.058c.551.419-.303.98-.706 1.211-.488.214-1.513.533-1.819-.085-.21-.406.424-.781.727-.942.477-.264 1.298-.568 1.798-.184zm10.214.917c.551.419-.303.979-.706 1.211-.488.214-1.513.533-1.819-.085-.21-.406.424-.781.727-.942.477-.264 1.298-.568 1.798-.184zM75.03 4.423c.551.419-.303.979-.706 1.211-.489.214-1.513.533-1.819-.085-.21-.406.424-.782.727-.942.477-.264 1.298-.568 1.798-.184zm-8.704 10.935a.596.596 0 00.397.04c4.658.471 9.293 1.06 13.843 1.859l.031.005a287.358 287.358 0 01-22.279 25.461.853.853 0 00-.474.078c-14.157.679-28.301.06-42.343-1.887a.735.735 0 00-.425.062 98.946 98.946 0 00-.034-.351c3.12-4.511 6.546-8.786 10.047-13.002 1.175-1.416 2.328-2.895 3.489-4.382 2.328-2.984 4.682-6.002 7.283-8.619 1.878-1.888 5.99-1.385 9.167-.997.798.098 1.536.188 2.165.231l2.205.154c5.6.39 11.28.784 16.928 1.348zM85.49 4.603c.551.419-.303.98-.706 1.211-.489.214-1.513.533-1.819-.085-.21-.406.423-.781.727-.942.477-.264 1.298-.568 1.798-.184zM44.134 60.226c-.551-.42.303-.98.706-1.212.488-.214 1.513-.533 1.818.085.21.406-.423.782-.726.942-.477.264-1.298.568-1.798.184zm-9.626-1.114c-.552-.42.303-.98.706-1.212.488-.213 1.513-.533 1.818.086.21.406-.423.78-.726.942-.478.263-1.298.567-1.798.184zm8.93-10.764c-.252-.252-.648-.335-.929-.02-6.126-.138-12.243-.278-18.369-.481a29.367 29.367 0 00-1.894.028c-1.558.054-3.277.114-4.536-.305-1.701-.581-2.233-3.104-2.49-5.243a230.984 230.984 0 0042.588 1.912l.869 2.007c.348.807.696 1.613 1.048 2.422-.097.02-.194.035-.291.048-2.941.379-6.157.152-9.29-.07-1.577-.11-3.133-.22-4.622-.25l-1.96-.045-.124-.003zm-20.11 10.87c-.552-.42.303-.98.705-1.212.489-.214 1.514-.534 1.82.085.21.406-.424.781-.728.942-.477.264-1.298.567-1.797.184zm-10.464-.195c-.551-.419.303-.979.706-1.211.488-.214 1.513-.533 1.819.085.21.406-.424.781-.727.942-.477.264-1.298.568-1.798.184zm22.243-26.667c5.967.379 11.914.816 17.875 1.264l-.726.772c-.638.674.451 1.62 1.076.95l.04-.013c.282-.3.748-.735 1.317-1.264v-.001c.515-.48 1.114-1.038 1.736-1.645.903.07 1.806.145 2.706.219h.002l1.808.147c.915.067 1.222-1.33.29-1.406-1.059-.081-2.119-.168-3.175-.255h-.002l-.324-.026a25.958 25.958 0 001.812-2.108l1.947.166h.003c.808.07 1.615.138 2.427.209.92.08 1.222-1.33.29-1.406-.813-.07-1.62-.14-2.428-.208h-.006l-1.32-.113c1.185-2.048 1.273-3.914-1.407-4.799-3.195-1.056-6.054-.048-8.557 1.766-.523-1.613-3.92-1.646-5.601-1.394-2.644.401-4.795 1.72-6.687 3.429l-4.586-.437c-.905-.084-1.208 1.326-.289 1.406.792.077 1.583.152 2.374.226l1.167.11a43.002 43.002 0 00-1.827 2.063l-1.985-.159h-.002c-.833-.067-1.665-.135-2.497-.199-.914-.066-1.221 1.33-.289 1.406.832.064 1.666.132 2.499.2h.006l1.166.094-.268.331c-.414.51-.823 1.015-1.233 1.507-.598.705.483 1.668 1.076.95l-.005-.014.43-.518h.001v-.001c.35-.421.7-.843 1.053-1.263a.827.827 0 00.113.014zM48.7 26.078a.734.734 0 01.091-.228c1.169-1.962-3.97-1.113-4.946-.952a.928.928 0 01-.155.023c-1.882.554-3.189 1.541-4.602 2.921a50.026 50.026 0 00-2.947 3.153c2.554.166 5.106.343 7.657.527l.271-.33c1.335-1.626 2.881-3.51 4.63-5.114zm-3.068 5.46l-.089.11c1.705.124 3.41.25 5.114.376l.012.001a7908.696 7908.696 0 003.573.264c1.137-1.2 2.276-2.403 3.39-3.62.12-.132.234-.253.343-.368.72-.763 1.173-1.245 1.137-2.552.508-1.598-.247-2.164-2.259-1.73-.32.018-.655.04-.99.063-4.555.434-7.512 4.092-10.231 7.457z" fill="#fff" fill-opacity=".15"/></svg><svg fill="none" viewBox="0 0 120 120" id="bit-c" xmlns="http://www.w3.org/2000/svg"><path fill-rule="evenodd" clip-rule="evenodd" d="M70.615 34.092c-1.077-.205-2.174-.427-3.284-.652-5.74-1.163-11.855-2.401-17.531-1.775-3.333.367-6.405 1.608-9.129 3.42-.38-.045-.659.218-.75.52-2.317 1.67-4.364 3.754-6.081 6.048a35.189 35.189 0 00-3.254 5.338.78.78 0 00-.242.496c-3.944 8.219-5.485 18.81-.867 26.434.015.174.1.335.271.433.598.925 1.29 1.803 2.084 2.625.984 1.015 2.117 1.889 3.339 2.658.002.246.142.468.469.52l.564.095c2.568 1.448 5.436 2.511 8.11 3.502.375.139.745.276 1.11.413 4.127 1.55 8.382 2.908 12.673 3.88a.776.776 0 00.108.016c5.867 1.62 12.205 1.691 17.88.107 10.664-2.98 16.365-12.7 17.08-23.356.926-13.798-6.925-26.263-20.415-30.055a.828.828 0 00-.07-.019 33.704 33.704 0 00-1.671-.372.549.549 0 00-.407-.28l.013.004zM40.649 80.994c2.978 1.388 6.137 2.552 9.32 3.535a28.397 28.397 0 01-3.588-2.588.764.764 0 01-.121-.011l-5.31-.886-.3-.05zm3.983-.679a22.627 22.627 0 01-2.69-3.298.682.682 0 01-.389.02l-9.787-2.2a13.757 13.757 0 003.714 3.382c.435.27.878.534 1.328.791l4.533.756 3.29.55zm-13.936-7.083l10.342 2.324a25.355 25.355 0 01-2.264-5.344.698.698 0 01-.17-.008l-5.216-.811-.02-.004-.01-.001-.032-.005-.042-.007-4.432-.69c.42 1.6 1.027 3.138 1.844 4.546zm.67-25a35.984 35.984 0 00-1.2 2.94.732.732 0 01.192.017c1.433.309 2.868.621 4.303.934h.003c1.408.307 2.816.614 4.222.917.292-.989.634-1.96 1.023-2.906l-8.543-1.901zm-2.612 8.017c.259-1.293.594-2.587 1.002-3.866.059.036.13.065.211.083 1.433.309 2.868.621 4.303.934h.001c1.422.31 2.844.62 4.264.926a31.425 31.425 0 00-.694 3.725.752.752 0 00-.13-.05 52.751 52.751 0 00-8.957-1.752zm-.237 1.306a32.567 32.567 0 00-.395 3.931c1.54.302 3.081.607 4.623.912h.004l.002.001h.001c1.628.322 3.255.644 4.88.962a31.073 31.073 0 01.08-4.082.657.657 0 01-.392 0 49.996 49.996 0 00-8.725-1.7l.004-.012a.82.82 0 01-.082-.012zm-.415 5.435l-.001-.154c1.418.278 2.837.56 4.257.84l.005.001c1.674.331 3.348.662 5.02.99a.707.707 0 00.338-.014c.127 1.413.354 2.813.684 4.183l-5.084-.79a32655.6 32655.6 0 00-4.784-.745 24.408 24.408 0 01-.435-4.311zM40.454 48.89a27.957 27.957 0 011.603-2.954c-2.659-.847-5.313-1.683-7.975-2.522a32.967 32.967 0 00-2.119 3.586l8.491 1.89zm-2.402-10.16a23.86 23.86 0 012.77-2.25c1.586.362 3.17.725 4.752 1.088 1.22.28 2.438.56 3.659.838a24.955 24.955 0 00-3.325 2.729.586.586 0 00-.433-.4l-4.011-1.084-3.412-.922zm-1.085 1.082a28.374 28.374 0 00-2.07 2.461c2.642.842 5.279 1.674 7.924 2.507a25.684 25.684 0 012.238-2.774l-3.982-1.076-4.013-1.085a.783.783 0 01-.097-.033zm3.641 12.213a26.05 26.05 0 012.845-5.772c.267-.092.433-.368.44-.644 6.235-8.817 17.42-12.346 28.431-9.584 11.493 3.217 18.892 12.96 19.524 24.81.526 9.735-3.363 20.652-12.772 24.853-9.268 4.148-21.227 2.542-29.555-3.048-9.95-6.69-12.776-19.608-8.913-30.615zm5.358-15.734c1.617.37 3.234.741 4.855 1.11a25.84 25.84 0 013.365-1.64l-7.597-1.93a.692.692 0 01-.213-.093 20.221 20.221 0 00-3.963 1.74c1.184.27 2.366.54 3.548.812h.004zm10.497-1.328a28.591 28.591 0 016.16-1.123c-4.539-.853-9.23-1.453-13.525-.748l7.324 1.86a.788.788 0 01.041.011zm14.954 27.258a.58.58 0 01.333-.24.613.613 0 01.111-.026c1.991-.43 3.176-2.553 3.042-4.513-.192-2.73-2.72-3.777-4.976-4.55a.68.68 0 01-.444-.834c.102-.331.193-.677.284-1.026.187-.709.377-1.43.663-2.068.07-.151.186-.42.272-.678a1.533 1.533 0 00-.484-.058c-.245.006-.49-.08-.735-.167-.091-.033-.182-.065-.273-.093a1.917 1.917 0 00-.181.608c-.097.655-.367 1.347-.626 2.014-.12.306-.237.608-.334.898a.68.68 0 01-.834.443l-2.214-.555c-.354-.094-.546-.495-.443-.834.1-.326.19-.668.28-1.013.184-.7.371-1.414.656-2.042a7.43 7.43 0 00.263-.652 1.86 1.86 0 00-.493-.076c-.218-.011-.447-.09-.677-.169a6.154 6.154 0 00-.33-.106c-.07.127-.151.334-.193.661-.083.657-.342 1.356-.593 2.035-.127.343-.252.68-.35 1.004a.67.67 0 01-.835.443 44.264 44.264 0 00-1.325-.348c-.903-.227-1.813-.457-2.655-.788a4.82 4.82 0 00-.541-.186l-.042.1c-.236.565-.547 1.31-.472 1.653.02.092.034.163.044.217-.001-.16.052-.385.349-.247.167.076.365.116.56.156.127.026.252.051.365.086a1.9 1.9 0 01.922.611c.718.877.506 2.018.287 3.046-.362 1.679-.886 3.348-1.405 5.002-.228.727-.455 1.45-.668 2.171-.086.294-.165.638-.25 1.004-.251 1.09-.547 2.37-1.203 3.071-.66.7-1.28.611-1.97.513-.324-.046-.662-.094-1.027-.064-.03.041-.068.09-.116.146-.18.201-.317.472-.448.73-.05.101-.1.2-.152.291-.14.243-.28.483-.42.723 1.592.468 3.191.945 4.79 1.423a.689.689 0 01.443.834c-.113.355-.215.726-.319 1.1-.198.72-.4 1.453-.691 2.111l-.038.09c-.062.144-.155.361-.231.578l.098.048c.15.074.37.182.684.29.385.136.637.183.784.211l.023.004c.037-.127.07-.256.102-.376.031-.119.06-.228.086-.315l1.06-3.195a.68.68 0 01.835-.443l2.015.576c.355.095.547.496.443.834-.093.335-.178.684-.263 1.035-.175.72-.352 1.455-.62 2.119a8.28 8.28 0 00-.234.607c.148.059.38.147.726.2.297.048.513.067.66.08l.068.007a8 8 0 00.152-.68c.117-.729.37-1.478.616-2.208.103-.303.204-.603.294-.896.1-.326.504-.572.834-.444 1.745.699 3.863 1.073 5.666.461 4.134-1.378 5.377-7.05 1.45-9.39-.4-.233-.377-.67-.155-.954zM68.73 47.897l.027-.001-.027.001zm-11.19 1.37c-.003-.002.01-.005.045-.001-.027.004-.044.003-.046 0zm4.81 27.617l.008-.01a.219.219 0 01-.009.01zM73.3 62.793c2.457-1.327 3.62-4.763 2.437-7.313-.624-1.36-1.656-1.872-2.722-2.402-.647-.321-1.306-.649-1.895-1.176-.183-.16-.221.215-.234.335l-.004.036c-.002 0-.004-.033-.008-.118-.003-.072-.008-.18-.017-.333-.015-.258.125-.602.252-.914.058-.145.114-.282.15-.401l.771-2.517c.1-.326-.085-.752-.443-.834-.448-.103-.897-.203-1.346-.303-.448-.1-.897-.2-1.345-.302-.358-.083-.71.084-.834.443-.148.439-.294.882-.441 1.327-.144.436-.288.873-.435 1.309-.033.107-.064.234-.096.368a8.02 8.02 0 01-.124.469l-.783-.2c-.096.021-.176.035-.242.045.054-.192.12-.385.187-.576.053-.152.105-.303.15-.453l.848-2.767c.1-.326-.085-.752-.43-.83l-2.742-.62c-.358-.083-.723.08-.834.442l-.748 2.442c-.04.134-.097.278-.156.427-.09.226-.183.463-.23.69-.891-.384-1.926-.614-2.928-.836a30.223 30.223 0 01-1.547-.372.67.67 0 00-.835.443l-.918 2.91c-.1.326.097.756.443.835 2.091.462 2.676.833 2.042 3.31-.253.996-.555 1.989-.857 2.982v.001c-.168.552-.336 1.104-.495 1.656-.121.418-.224.862-.327 1.307-.5 2.168-1.012 4.38-3.724 3.96-.208-.037-.477.127-.588.312l-.004.007-.001.001c-.575.985-1.15 1.97-1.728 2.968-.21.374-.061.872.364 1.002.526.157 1.092.37 1.675.59 1.066.402 2.185.825 3.21.954-.094.244-.159.547-.216.819-.038.178-.073.343-.112.47v.001c-.269.876-.533 1.74-.814 2.612-.107.351.109.719.443.835.462.148.922.3 1.383.45.46.152.92.303 1.382.45.35.108.718-.108.834-.442.147-.434.29-.866.431-1.297l.001-.002c.143-.432.285-.865.432-1.3l.08-.263c.112-.373.226-.75.365-1.115.093.042.22.085.39.127.18.047.316.08.416.099-.048.182-.105.364-.162.544v.001c-.05.156-.098.309-.14.46l-.395 1.426-.396 1.427c-.1.326.085.752.443.834l.17.039c.815.185 1.64.373 2.459.547.346.078.723-.08.834-.443.19-.624.37-1.246.548-1.87v-.002l.273-.945.117-.375v-.001a46.1 46.1 0 00.165-.536c1.333 1.069 4.97.61 6.325.045 4.51-1.895 5.733-7.808 2.275-10.9zm-7.633-12.494c.02-.014.085-.017.137.028-.13.007-.157-.015-.137-.028zm-4.798 21.845l-.002.015.002-.015zm4 .896a1.362 1.362 0 01-.007.025l.006-.025zm-.58.255l.005.004a.126.126 0 00-.01-.007l.004.004zm-.548-19.57a.861.861 0 01.02-.06c.062-.265.273-.47.631-.412 2.559.414 7.045 1.91 6.267 5.302-.782 3.404-5.757 2.25-8.064 1.42-.347-.119-.555-.47-.443-.833l1.59-5.417zm1.104.974a10.873 10.873 0 011.985.615c1.192.489 3.037 1.533 2.487 3.104-.637 1.845-3.93 1.068-5.707.494.41-1.407.818-2.808 1.235-4.213zM61.25 67.662c2.064.663 6.083 1.68 6.885-.457.65-2.611-3.2-3.825-5.476-4.29l-1.409 4.747zm8.206-.264c.753-3.74-4.152-5.394-7.071-5.884-.354-.054-.716.055-.834.443l-1.764 5.939a.68.68 0 00.444.834c2.514.877 7.699 2.255 9.106-.948a.71.71 0 00.075-.186.703.703 0 00.044-.198zm2.56-29.823a.802.802 0 00-.1-.026c-10.878-2.677-22.22.886-27.914 10.955-5.18 9.18-4.739 22.19 2.917 29.888 7.078 7.125 18.786 9.682 28.34 6.882 9.436-2.768 14.428-11.513 15.01-20.977.756-12.301-6.262-23.32-18.253-26.722zm-.43 1.266c10.163 2.865 16.678 11.379 17.347 21.856.543 8.562-2.808 18.302-11.003 22.162-8.256 3.883-19.029 2.475-26.518-2.502-8.89-5.9-11.47-17.386-8.053-27.202 4.165-11.997 16.277-17.288 28.227-14.314zm11.429 11.84c2.14 2.764 3.002 6.165 2.533 9.623-.112.856 1.223.881 1.33.038.511-3.816-.53-7.531-2.887-10.568-.53-.683-1.507.224-.976.907zm3.1 13.275l-.059-.346c-.153-.841 1.148-1.155 1.298-.301l.058.346c.154.841-1.148 1.155-1.297.301z" fill="#fff" fill-opacity=".14"/></svg><svg viewBox="0 0 24 24" id="close" xmlns="http://www.w3.org/2000/svg"><path d="M6 18.02L18.02 6l.708.707-12.02 12.02L6 18.022z"/><path d="M18.02 18.728L6 6.708 6.707 6l12.02 12.02-.706.708z"/></svg><svg fill="none" viewBox="0 0 133 133" id="coin" xmlns="http://www.w3.org/2000/svg"><path fill-rule="evenodd" clip-rule="evenodd" d="M60.282 36.465c-1.14.458-2.312.912-3.5 1.372-6.186 2.398-12.82 4.97-17.79 9.085-4.61 3.832-7.243 9.324-8.315 15.115-.175.184-.204.46-.123.708a34.32 34.32 0 00-.358 3.095c-.918 12.952 5.31 31.174 19.487 34.519 5.062 1.198 10.71-.035 15.776-1.14l1.385-.301c4.769-1.027 9.53-2.29 14.116-3.96 6.622-2 12.752-5.805 17.203-10.803 8.253-9.26 7.74-21.88 1.963-32.361-7.483-13.58-22.44-20.576-37.466-15.976a37.622 37.622 0 00-1.845.676c-.15-.088-.34-.11-.561-.02l.028-.009zm-28.807 31.23c.025-1.512.148-3.015.375-4.49a82.474 82.474 0 008.918-2.37 29.166 29.166 0 00-.233 3.389c-3.014 1.16-6.041 2.323-9.06 3.472zm.008 1.592c.039 1.42.16 2.842.357 4.254 1.464-.62 2.931-1.238 4.398-1.857 1.578-.665 3.155-1.33 4.728-1.997a31.64 31.64 0 01-.401-3.75l-.006-.127-9.076 3.477zm1.425 9.408a40.761 40.761 0 01-.827-3.643c1.52-.644 3.043-1.287 4.567-1.929a2322.27 2322.27 0 004.602-1.944 34.237 34.237 0 001.008 3.676.773.773 0 00-.332.09 68.502 68.502 0 01-9.018 3.75zm.42 1.421c.442 1.403.956 2.77 1.535 4.085l9.482-4.397a35.357 35.357 0 01-1.607-3.604 72.186 72.186 0 01-9.41 3.917zm4.15 8.978a34.964 34.964 0 01-1.99-3.549l9.564-4.436a34.557 34.557 0 002.447 3.722l-9.84 4.157a.83.83 0 00-.182.106zm.833 1.23a26.23 26.23 0 003.32 3.821l10.27-4.55a31.785 31.785 0 01-3.461-3.575.829.829 0 01-.173.1l-9.956 4.205zm8.682 7.51a19.528 19.528 0 01-4.137-2.614l10.313-4.57a28.353 28.353 0 003.315 2.255c-1.442.75-2.884 1.498-4.325 2.246l-.003.001-.002.001-.009.005h-.001c-1.71.888-3.421 1.776-5.134 2.668l-.017.009zm1.835.723c1.589.518 3.27.793 5.029.766.391-.007.784-.018 1.178-.034a.793.793 0 01.196-.175c2.057-1.336 4.103-2.668 6.147-4a25.824 25.824 0 01-3.306-1.358l-.017.008c-1.713.893-3.424 1.78-5.135 2.668l-.01.006-.003.001-.004.002c-1.358.704-2.716 1.409-4.075 2.116zm14.814-.27a66.085 66.085 0 01-5.636.798c1.663-1.083 3.328-2.167 5-3.253a.789.789 0 00.206-.188c1.034.257 2.082.456 3.138.6l-.704.476c-.566.382-1.132.764-1.694 1.146a.72.72 0 00-.31.421zm3.376-.697a95.098 95.098 0 004.222-1.07 32.501 32.501 0 01-2.821-.066.731.731 0 01-.304.394l-1.097.742zm-34.88-35.975a85.282 85.282 0 008.893-2.44c.286-1.52.693-2.991 1.209-4.408-1.283.407-2.568.814-3.854 1.22-1.577.5-3.155.998-4.728 1.5a.744.744 0 01-.332.032 27.533 27.533 0 00-1.187 4.096zm10.81-8.605a28.772 28.772 0 012.742-4.85c-3.04 1.144-6.085 2.299-9.13 3.454a23.047 23.047 0 00-2.506 4.177c1.305-.415 2.613-.828 3.921-1.242h.001c1.578-.5 3.156-.998 4.73-1.5a.787.787 0 01.242-.04zm-4.255-3.821l-.05.048c2.67-1.006 5.343-2.02 8.016-3.034a.631.631 0 01.52.005 31.923 31.923 0 015.476-5.181c-5.128 2.07-10.247 4.518-13.962 8.162zM63.2 37.218c12.737-3.844 25.549.869 33.291 11.615 6.383 8.859 9.329 21.504 3.004 31.16-6.23 9.508-18.478 15.239-29.71 15.006-13.426-.279-23.901-10.763-26.923-23.463-3.683-15.5 5.57-29.332 20.212-34.264a.84.84 0 00.126-.054zM43.95 66.575c-.96-13.118 7.67-23.57 19.715-27.656l.014-.004.027-.008.023-.007c13.356-4.053 26.642 2.085 33.366 14.14 5.295 9.488 5.721 20.944-1.846 29.292-7.406 8.165-19.8 12.687-30.653 10.195C52.948 89.866 44.778 78.16 43.95 66.575zm20.16-26.228l-.007.003c-13.214 4.48-21.437 17.058-17.852 30.984C49.125 82.55 58.48 91.57 70.354 91.696c10.049.097 21.02-5.133 26.41-13.792 5.335-8.581 2.559-19.718-3.089-27.445-6.935-9.472-18.288-13.542-29.564-10.112zm3.62 26.333a292.164 292.164 0 01-6.47-1.805 101.822 101.822 0 008.32-6.468l.367 1.461.004.016a466.628 466.628 0 002.047 7.931c-.914-.103-2.231-.512-3.259-.831-.391-.122-.74-.23-1.01-.304zm-1.79-21.464a9195.697 9195.697 0 01-4.96 18.04 95.491 95.491 0 008.19-6.463c-.99-3.884-2.018-7.758-3.23-11.577zm7.513 24.001l.029-.011c1.121-.465 2.325-1.997 3.303-3.242.355-.45.68-.865.96-1.176l.077-.084c1.88-2.071 3.8-4.188 5.343-6.539.258-.39.082-.762-.227-.95a.865.865 0 00-.077-.062 92.961 92.961 0 01-16.428-15.21c-.384-.44-1.108-.142-1.241.354a9041.184 9041.184 0 00-6.11 22.229c-.413.329-.421 1.146.255 1.341l-.024.022 1.467.42c2.747.786 5.492 1.572 8.272 2.282.265.069.557.159.865.254.931.287 2.004.62 2.921.52a.84.84 0 00.615-.148zm-.008-1.784c-.716-2.643-1.385-5.3-2.054-7.958l-.351-1.392c3.246.287 6.485.578 9.736.876-1.037 1.362-2.182 2.648-3.32 3.926l-.203.228c-.314.35-.673.816-1.063 1.32-.83 1.078-1.797 2.33-2.745 3zm7.35-9.96a94.513 94.513 0 01-13.19-11.95c1.133 3.645 2.108 7.337 3.05 11.038 3.385.31 6.758.613 10.14.912zm-2.502 28.3L60.888 71.934a.63.63 0 01-.322-.297c-.155-.228-.122-.489.017-.698a.725.725 0 01.832-.401c1.12.238 2.241.479 3.363.72 1.12.241 2.242.482 3.362.72.561.122 1.121.241 1.681.36s1.12.238 1.681.36c.177.033.94.301 1.605.534.55.193 1.033.362 1.059.355.585-.188 1.353-1.212 1.955-2.012.246-.328.464-.619.63-.799l1.916-2.09.004-.003c1.657-1.807 3.32-3.62 4.984-5.425.512-.558 1.448-.001 1.269.706l-2.695 10.728c-.9 3.577-1.798 7.155-2.695 10.728-.137.588-.81.688-1.242.353zm-14.066-13.08l.526.112c1.23.264 2.461.527 3.696.793.467.1 1.075.29 1.74.497 1.3.404 2.815.876 3.91.878.63 1.644 1.256 3.29 1.883 4.938l1.162 3.05-6.59-5.238-.011-.01-6.316-5.02zm14.436 10.069l2.12-8.436 1.971-7.848-1.977 2.152c-1.325 1.442-2.65 2.883-3.97 4.326-.133.148-.273.326-.421.515-.267.34-.56.711-.884.996.641 1.676 1.28 3.355 1.919 5.034l1.242 3.26zm16.241-22.098c1.651 3.816 1.27 7.936-1.075 11.38-.537.793.769 1.52 1.305.726 2.524-3.723 2.981-8.384 1.21-12.516-.37-.87-1.814-.475-1.44.41zM91.831 74.29l.411-.483c.613-.739 1.686.298 1.073 1.037l-.411.483c-.614.74-1.687-.297-1.073-1.037z" fill="#fff" fill-opacity=".15"/></svg></svg>