<?xml version="1.0" standalone="no"?>
<!DOCTYPE svg PUBLIC "-//W3C//DTD SVG 20010904//EN"
 "http://www.w3.org/TR/2001/REC-SVG-20010904/DTD/svg10.dtd">
<svg version="1.0" xmlns="http://www.w3.org/2000/svg"
 width="512.000000pt" height="512.000000pt" viewBox="0 0 512.000000 512.000000"
 preserveAspectRatio="xMidYMid meet">
<metadata>
Created by potrace 1.11, written by Peter Selinger 2001-2013
</metadata>
<g transform="translate(0.000000,512.000000) scale(0.100000,-0.100000)"
fill="#000000" stroke="none">
<path d="M2031 3990 c-524 -93 -960 -171 -967 -174 -12 -5 -14 -198 -14 -1246
l0 -1240 23 -10 c12 -5 452 -84 977 -175 525 -92 965 -169 978 -172 l22 -5 0
1596 0 1596 -32 -1 c-18 -1 -462 -77 -987 -169z m299 -1407 c118 -311 216
-572 218 -580 3 -10 -21 -13 -111 -13 l-115 0 -53 145 -53 145 -202 0 -202 0
-30 -77 c-16 -43 -40 -108 -53 -145 l-24 -68 -116 0 -117 0 62 163 c34 89 134
350 222 580 l159 417 100 0 100 0 215 -567z"/>
<path d="M1938 2684 c-42 -115 -79 -217 -83 -226 -7 -17 5 -18 154 -18 89 0
161 2 161 4 0 3 -30 89 -66 193 -37 103 -72 203 -78 222 -12 34 -13 32 -88
-175z"/>
<path d="M3210 3172 l0 -269 58 -12 c150 -29 262 -167 262 -321 0 -154 -112
-292 -262 -321 l-58 -12 0 -269 0 -269 98 3 97 3 3 115 3 116 51 18 51 18 78
-78 79 -79 140 140 c77 77 140 144 140 150 0 5 -34 44 -75 85 l-75 76 22 52
22 52 113 0 113 0 0 200 0 200 -113 0 -113 0 -22 52 -22 52 75 76 c41 41 75
80 75 85 0 6 -63 73 -140 150 l-140 140 -79 -79 -78 -78 -51 18 -51 18 -3 116
-3 115 -97 3 -98 3 0 -269z"/>
<path d="M3210 2570 l0 -190 28 6 c66 16 111 54 137 116 44 106 -20 224 -137
252 l-28 6 0 -190z"/>
</g>
</svg>
