<svg width="120" height="120" viewBox="0 0 120 120" fill="none" xmlns="http://www.w3.org/2000/svg">
<path fill-rule="evenodd" clip-rule="evenodd" d="M70.6149 34.0923C69.5382 33.8871 68.4414 33.6649 67.3305 33.4399C61.5918 32.2774 55.4764 31.0386 49.7996 31.6647C46.4667 32.0316 43.3947 33.2731 40.6711 35.0856C40.2908 35.0402 40.0122 35.3027 39.9218 35.6048C37.6039 37.2754 35.5571 39.3587 33.8395 41.6534C32.6558 43.2411 31.554 45.0448 30.5859 46.991C30.4461 47.1206 30.3593 47.3045 30.3436 47.487C26.3997 55.7059 24.8588 66.2972 29.4772 73.9213C29.4917 74.0951 29.5767 74.2565 29.7483 74.3545C30.3461 75.2792 31.0384 76.1573 31.8322 76.9789C32.816 77.9942 33.9486 78.8676 35.1706 79.6368C35.1727 79.8826 35.3132 80.1052 35.6396 80.1577L36.2039 80.252C38.7718 81.7001 41.64 82.763 44.3146 83.7542L44.3149 83.7543L44.3149 83.7543C44.6889 83.8929 45.059 84.0301 45.4241 84.1667C49.5513 85.7178 53.8063 87.0752 58.0974 88.0464C58.1341 88.0546 58.1699 88.06 58.2049 88.0628C64.0719 89.6824 70.4096 89.754 76.0845 88.1702C86.749 85.1892 92.4499 75.4704 93.1646 64.814C94.0906 51.0157 86.2404 38.5506 72.7497 34.7587C72.7384 34.7553 72.7269 34.7521 72.7151 34.7491C72.7034 34.7458 72.6917 34.7429 72.6801 34.7403C72.1241 34.6017 71.5668 34.4777 71.009 34.3684C70.9391 34.2335 70.8074 34.1278 70.6024 34.0884L70.6149 34.0923ZM40.6491 80.9936C43.6267 82.3818 46.7862 83.5462 49.9697 84.5291C48.7048 83.7571 47.5029 82.8938 46.3809 81.9411C46.3417 81.9406 46.3014 81.9369 46.2599 81.9297C44.4877 81.6337 42.7187 81.3387 40.9496 81.0437L40.6491 80.9936ZM44.6318 80.3153C44.5091 80.1904 44.3877 80.0641 44.2675 79.9367C43.4057 79.0223 42.631 78.0451 41.9414 77.0168C41.8276 77.0583 41.6968 77.0695 41.5533 77.0373L31.7663 74.8379C32.7683 76.1508 33.9974 77.3019 35.4795 78.2187C35.9152 78.489 36.358 78.7527 36.8075 79.0101C38.3199 79.2626 39.8303 79.5145 41.3408 79.7664L44.6318 80.3153ZM30.696 73.2321L41.0378 75.5563C40.0788 73.8725 39.3268 72.076 38.7739 70.2116C38.7217 70.2159 38.6653 70.2138 38.6048 70.204C36.868 69.9342 35.1282 69.6634 33.3883 69.3926L33.3685 69.3895L33.3575 69.3878L33.3263 69.3829L33.2836 69.3763C31.8059 69.1463 30.3281 68.9163 28.8522 68.6869C29.2724 70.2855 29.8787 71.8238 30.696 73.2321ZM31.366 48.2325C30.9223 49.1945 30.5218 50.1766 30.1657 51.1711C30.2268 51.1685 30.291 51.174 30.3581 51.1891C31.7909 51.4975 33.2258 51.8101 34.6607 52.1227L34.6609 52.1227L34.6614 52.1229L34.662 52.123L34.6625 52.1231L34.663 52.1232L34.6636 52.1233L34.6641 52.1234C36.072 52.4301 37.4798 52.7368 38.8857 53.0396C39.1783 52.051 39.5198 51.0804 39.909 50.1344L31.366 48.2325ZM28.7536 56.2488C29.0128 54.956 29.3477 53.662 29.7557 52.3828C29.8149 52.4193 29.8851 52.448 29.9671 52.4664C31.3998 52.7749 32.8347 53.0875 34.2696 53.4L34.27 53.4001L34.2702 53.4002L34.2704 53.4002L34.2706 53.4003L34.2708 53.4003L34.271 53.4004L34.2712 53.4004C35.6932 53.7101 37.1151 54.0199 38.5349 54.3257C38.2294 55.5489 37.9973 56.7947 37.8407 58.0511C37.8014 58.0313 37.7584 58.0144 37.7115 58.0008C34.766 57.1532 31.7908 56.5769 28.7536 56.2488ZM28.5174 57.5549C28.3041 58.8782 28.1713 60.1944 28.1219 61.4861C29.6617 61.7879 31.2031 62.0928 32.7446 62.3978L32.745 62.3979L32.7453 62.3979L32.7455 62.398L32.7457 62.398L32.7487 62.3986L32.7515 62.3991L32.7518 62.3992L32.7522 62.3993L32.7526 62.3994C34.38 62.7213 36.0073 63.0432 37.6327 63.3614C37.5691 62.0026 37.5965 60.6367 37.712 59.2786C37.5977 59.3159 37.4658 59.3203 37.3204 59.2782C34.4498 58.4542 31.5565 57.8835 28.5952 57.5796L28.599 57.5671C28.5708 57.5643 28.5436 57.5602 28.5174 57.5549ZM28.1023 62.9896C28.1016 62.9385 28.1011 62.8873 28.1007 62.836C29.5188 63.1143 30.9382 63.3951 32.3577 63.6759L32.3628 63.677L32.3631 63.677C34.037 64.0082 35.7108 64.3393 37.3825 64.6663C37.5057 64.69 37.6193 64.6828 37.7208 64.6526C37.8477 66.0657 38.0747 67.4659 38.4048 68.8363C36.7121 68.5733 35.0167 68.3094 33.3212 68.0455C31.7256 67.7972 30.1299 67.5489 28.5366 67.3012C28.2607 65.8795 28.1215 64.4268 28.1023 62.9896ZM40.4544 48.8915C40.8029 48.1456 41.1821 47.4177 41.5914 46.7112C41.7431 46.4491 41.8983 46.191 42.0569 45.9369C39.3982 45.09 36.7442 44.2537 34.0816 43.415C33.3034 44.5577 32.5964 45.759 31.9634 47.0011L40.4544 48.8915ZM38.0516 38.7302C38.9233 37.9098 39.8474 37.1563 40.8218 36.4819C42.408 36.8432 43.9911 37.2061 45.5742 37.5691L45.5746 37.5692C46.7934 37.8486 48.0123 38.1281 49.2325 38.4068C48.06 39.2111 46.9478 40.1207 45.9084 41.136C45.8545 40.9563 45.7167 40.8025 45.4751 40.7365L41.4639 39.6524L38.0516 38.7302ZM36.9672 39.813C36.2349 40.588 35.5443 41.4113 34.8969 42.2743C37.5389 43.1164 40.1757 43.9477 42.8207 44.7809C43.5142 43.7886 44.2623 42.8641 45.0588 42.007L41.0773 40.9309L37.0639 39.8463C37.0296 39.8369 36.9974 39.8257 36.9672 39.813ZM40.6082 52.0258C41.3473 49.9142 42.3076 47.9879 43.4533 46.254C43.7202 46.1622 43.8858 45.8862 43.8938 45.6096C50.1278 36.793 61.3124 33.264 72.3241 36.0264C83.8169 39.2434 91.2162 48.9869 91.8484 60.8363C92.3745 70.5713 88.4847 81.4883 79.0765 85.6894C69.8079 89.8372 57.8494 88.2309 49.521 82.6407C39.5706 75.9512 36.7454 63.0333 40.6082 52.0258ZM45.9657 36.2918C47.5829 36.6626 49.2001 37.0334 50.8206 37.4024C51.9021 36.7734 53.0266 36.2265 54.1857 35.7611L46.5887 33.8321C46.5058 33.8108 46.435 33.7791 46.3756 33.7395C44.9842 34.1776 43.6622 34.7646 42.4131 35.4783C43.5967 35.7487 44.779 36.0198 45.9613 36.2908L45.9617 36.2909L45.9621 36.291L45.9625 36.2911L45.9629 36.2912L45.9633 36.2913L45.9637 36.2914L45.9641 36.2915L45.9645 36.2916L45.9649 36.2917L45.9653 36.2918L45.9657 36.2918ZM56.4634 34.9641C58.4492 34.3674 60.5149 33.9935 62.6223 33.8405C58.0842 32.988 53.3925 32.3885 49.0982 33.0927L56.4224 34.9524C56.4364 34.956 56.4501 34.9599 56.4634 34.9641ZM71.4172 62.2216C71.4873 62.1135 71.5965 62.0268 71.7497 61.9816C71.7857 61.9697 71.8229 61.9609 71.8611 61.9558C73.8521 61.5252 75.0373 59.4025 74.9026 57.4431C74.7109 54.7136 72.1828 53.6657 69.9266 52.8928C69.5798 52.773 69.3761 52.4093 69.4834 52.0587C69.5847 51.7279 69.6756 51.3821 69.7674 51.0329L69.7675 51.0329L69.7675 51.0328C69.9538 50.3244 70.1436 49.6025 70.4304 48.9655C70.4993 48.8139 70.6164 48.5454 70.7022 48.2867C70.5877 48.2514 70.4302 48.2247 70.2175 48.2292C69.9733 48.2352 69.7278 48.1482 69.4833 48.0615C69.392 48.0292 69.3008 47.9968 69.2099 47.9695C69.1455 48.091 69.0739 48.2828 69.0288 48.5775C68.9315 49.2323 68.6623 49.9243 68.4031 50.5906C68.2837 50.8975 68.1665 51.1989 68.0691 51.4887C67.9454 51.8481 67.5894 52.0267 67.2349 51.9319L65.0214 51.3775C64.6669 51.2827 64.4747 50.8815 64.5782 50.5433C64.6782 50.2168 64.7679 49.8752 64.8584 49.5302L64.8584 49.5301L64.8584 49.53L64.8585 49.53C65.0422 48.83 65.2295 48.1163 65.5137 47.4877C65.5804 47.341 65.6922 47.0847 65.7765 46.8357C65.6603 46.7994 65.5004 46.7675 65.2844 46.7601C65.0657 46.7487 64.837 46.6703 64.6067 46.5913C64.497 46.5537 64.387 46.516 64.2776 46.4853C64.2075 46.6117 64.1258 46.8186 64.0843 47.146C64.0014 47.8028 63.7425 48.5023 63.4914 49.1805L63.4913 49.1806C63.3643 49.5237 63.2393 49.8613 63.1401 50.1853C63.0328 50.5359 62.6566 50.7358 62.3059 50.6284C61.8722 50.5047 61.4275 50.3926 60.9808 50.2801L60.9808 50.2801C60.0782 50.0526 59.168 49.8233 58.3257 49.4921C58.0826 49.3948 57.9074 49.3381 57.7849 49.3056L57.743 49.4059C57.5068 49.9711 57.1955 50.7159 57.2706 51.0593C57.2908 51.1513 57.3048 51.2223 57.3145 51.2757C57.3137 51.1157 57.3666 50.8915 57.6635 51.0289C57.8309 51.105 58.0293 51.1454 58.2237 51.1851L58.2238 51.1851C58.3505 51.2109 58.4755 51.2364 58.5891 51.2712C58.9523 51.3823 59.2723 51.5899 59.5115 51.8822C60.2291 52.7594 60.017 53.8997 59.798 54.9284C59.4364 56.607 58.9125 58.2756 58.3931 59.9301L58.393 59.9303L58.393 59.9304L58.393 59.9305L58.393 59.9305L58.3929 59.9306L58.3929 59.9306L58.3929 59.9307C58.1649 60.657 57.9377 61.3805 57.7255 62.101C57.639 62.3947 57.5596 62.739 57.4752 63.1048C57.2237 64.1943 56.9282 65.4745 56.2725 66.1761C55.6121 66.8754 54.9915 66.7872 54.3012 66.689C53.9782 66.6431 53.64 66.5951 53.2753 66.6245C53.2454 66.666 53.2071 66.7146 53.1594 66.7708C52.9794 66.9721 52.842 67.2432 52.7111 67.5015C52.6601 67.602 52.6102 67.7006 52.559 67.7924C52.4181 68.0353 52.2781 68.2754 52.1381 68.5153C53.7314 68.9828 55.3301 69.4605 56.9288 69.9382C57.2669 70.0417 57.4755 70.4342 57.372 70.7724C57.2587 71.1269 57.1566 71.4977 57.0534 71.8722C56.8552 72.5916 56.6533 73.3248 56.3617 73.9831C56.3512 74.0081 56.3383 74.0383 56.3235 74.0727C56.2619 74.2166 56.1687 74.4342 56.093 74.6513C56.1217 74.6648 56.1541 74.6808 56.1906 74.6988C56.341 74.7729 56.561 74.8814 56.8754 74.9896C57.2602 75.1248 57.5117 75.1722 57.659 75.2L57.682 75.2043C57.7191 75.0771 57.7529 74.9478 57.7841 74.8284L57.7841 74.8284C57.8152 74.7094 57.8437 74.6005 57.8703 74.5134C58.2212 73.4567 58.576 72.3873 58.9307 71.318C59.0506 70.9712 59.4143 70.7675 59.7649 70.8749L61.7801 71.4507C62.1346 71.5455 62.3267 71.9468 62.2232 72.2849C62.1296 72.6201 62.0452 72.9685 61.96 73.3203C61.7854 74.0407 61.6075 74.7751 61.34 75.4386C61.2907 75.5546 61.1887 75.797 61.106 76.046C61.2539 76.1049 61.4853 76.1931 61.8322 76.2468C62.1294 76.2937 62.3447 76.3131 62.492 76.3263L62.5602 76.3325C62.6365 76.0505 62.6969 75.7524 62.7124 75.6533C62.8291 74.9242 63.0819 74.1751 63.3285 73.4448C63.4307 73.1419 63.5318 72.8423 63.6217 72.5486C63.7214 72.223 64.1255 71.9769 64.4559 72.1055C66.2007 72.804 68.3187 73.1784 70.1222 72.5663C74.2559 71.1883 75.4995 65.5151 71.5724 63.1761C71.1718 62.9428 71.195 62.5058 71.4172 62.2216ZM68.7303 47.8972C68.7392 47.8966 68.748 47.8963 68.7569 47.896L68.7303 47.8972ZM57.5392 49.2667C57.5374 49.2647 57.5509 49.2624 57.585 49.2656C57.5581 49.2703 57.541 49.2687 57.5392 49.2667ZM62.3492 76.8844L62.3579 76.8732C62.355 76.8772 62.3521 76.8809 62.3492 76.8844ZM73.2995 62.7928C75.7571 61.4663 76.9193 58.03 75.7365 55.4795C75.1125 54.1206 74.0808 53.6078 73.0148 53.078C72.3681 52.7566 71.7088 52.429 71.1201 51.9023C70.937 51.7422 70.8987 52.1175 70.8865 52.2375C70.8842 52.2595 70.8828 52.2729 70.8816 52.2729C70.8797 52.2729 70.8781 52.2399 70.8741 52.1552L70.8741 52.155L70.8741 52.1545L70.8741 52.1542C70.8707 52.0831 70.8656 51.9759 70.8571 51.8217C70.8423 51.5645 70.982 51.2202 71.1087 50.9081L71.1087 50.9081L71.1087 50.908C71.1674 50.7634 71.2233 50.6258 71.2597 50.5068L72.0302 47.9897C72.1299 47.6641 71.9454 47.2378 71.5871 47.1555C71.1392 47.0526 70.6904 46.9529 70.2415 46.8532C69.7927 46.7534 69.3438 46.6537 68.8959 46.5508C68.5376 46.4685 68.1854 46.6346 68.0617 46.994C67.9135 47.433 67.7675 47.8761 67.6209 48.3209L67.6209 48.3212L67.6208 48.3214C67.4773 48.7568 67.3334 49.1937 67.1864 49.6297C67.1533 49.7375 67.1225 49.8641 67.0899 49.9979C67.0527 50.1507 67.0132 50.3128 66.9655 50.467L66.183 50.2676C66.0868 50.2882 66.0069 50.3025 65.9409 50.312C65.9952 50.1199 66.0619 49.9273 66.1283 49.7355L66.1283 49.7354L66.1284 49.7352C66.1808 49.5839 66.233 49.4331 66.2788 49.2834L67.1261 46.5158C67.2257 46.1902 67.0412 45.7639 66.6954 45.6854L63.9542 45.0654C63.5958 44.9831 63.2312 45.1454 63.12 45.5085L62.3724 47.9505C62.3316 48.0839 62.2746 48.228 62.2158 48.3767L62.2158 48.3768C62.1263 48.6033 62.0326 48.8404 61.9854 49.0661C61.0947 48.6833 60.0602 48.4535 59.0578 48.2308L59.0578 48.2308L59.0577 48.2308C58.5241 48.1123 57.9996 47.9958 57.5106 47.8593C57.16 47.7519 56.7838 47.9518 56.6765 48.3024L55.7582 51.2126C55.6585 51.5382 55.8555 51.9683 56.2013 52.0468C58.2924 52.5089 58.8774 52.8797 58.2426 55.3562C57.9903 56.353 57.6882 57.3458 57.386 58.339L57.386 58.339L57.386 58.3391L57.386 58.3391L57.386 58.3391L57.386 58.3392L57.386 58.3392L57.386 58.3393L57.3859 58.3393L57.3859 58.3394L57.3859 58.3394L57.3859 58.3395L57.3859 58.3395L57.3859 58.3396L57.3859 58.3396L57.3858 58.3396L57.3858 58.3397L57.3858 58.3397L57.3857 58.34C57.2179 58.8918 57.05 59.4437 56.8905 59.9964C56.7695 60.4145 56.6671 60.8578 56.5642 61.3031L56.5642 61.3031L56.5642 61.3031L56.5642 61.3032L56.5642 61.3032L56.5642 61.3032L56.5642 61.3032L56.5642 61.3033L56.5642 61.3033L56.5641 61.3033L56.5641 61.3034L56.5641 61.3034L56.5641 61.3034L56.5641 61.3034L56.5641 61.3035L56.5641 61.3035L56.5641 61.3035L56.5641 61.3036C56.0633 63.4707 55.5519 65.6835 52.8404 65.2625C52.6324 65.2262 52.363 65.3902 52.2516 65.5753L52.2477 65.5819L52.2473 65.5827L52.2469 65.5834C51.6721 66.5684 51.0974 67.5536 50.5188 68.5511C50.3085 68.925 50.4575 69.4226 50.8832 69.553C51.4092 69.7096 51.9755 69.9232 52.5578 70.143L52.5579 70.143L52.5579 70.1431C53.6236 70.5452 54.7431 70.9677 55.7676 71.0974C55.6738 71.341 55.6095 71.6436 55.5517 71.9156L55.5517 71.9156C55.5137 72.0941 55.4786 72.2593 55.4398 72.3861L55.4395 72.3871C55.1712 73.2634 54.9068 74.1271 54.6261 74.9995C54.5187 75.3502 54.7349 75.7177 55.0692 75.8337C55.5307 75.9818 55.9913 76.1331 56.4518 76.2844C56.9122 76.4356 57.3726 76.5868 57.834 76.7349C58.1846 76.8422 58.5522 76.626 58.6682 76.2917C58.8147 75.858 58.9571 75.4263 59.0994 74.9948L59.1001 74.9928C59.2427 74.5605 59.3853 74.1281 59.532 73.6936C59.5588 73.6062 59.5853 73.5185 59.6118 73.4304C59.7245 73.0572 59.8384 72.6797 59.9771 72.3149C60.0703 72.3567 60.1973 72.3998 60.367 72.4425C60.5478 72.4894 60.6832 72.5214 60.7832 72.5409C60.7352 72.7229 60.6778 72.9047 60.621 73.0846L60.6209 73.0846L60.6209 73.0847L60.6209 73.0848L60.6208 73.0849L60.6208 73.085L60.6208 73.085L60.6208 73.0851L60.6207 73.0852L60.6207 73.0853L60.6207 73.0854L60.6207 73.0854L60.6206 73.0855L60.6206 73.0856L60.6206 73.0857L60.6206 73.0858L60.6205 73.0858L60.6205 73.0859L60.6205 73.086L60.6205 73.086L60.6205 73.0861L60.6205 73.0861L60.6204 73.0861L60.6204 73.0862L60.6204 73.0862L60.6204 73.0863L60.6204 73.0863L60.6204 73.0864L60.6204 73.0864L60.6204 73.0865L60.6203 73.0865L60.6203 73.0866L60.6203 73.0866L60.6203 73.0866L60.6203 73.0867C60.5714 73.2415 60.5229 73.3949 60.4812 73.5459L60.0856 74.9725L59.69 76.3991C59.5903 76.7247 59.7748 77.151 60.1331 77.2333L60.3025 77.2718C61.1183 77.4574 61.9438 77.6453 62.7617 77.8188C63.1075 77.8973 63.4847 77.7388 63.5959 77.3756C63.7869 76.7517 63.9651 76.13 64.1439 75.5064L64.144 75.5059L64.1442 75.5054L64.1442 75.5053L64.1443 75.5051L64.1447 75.5037C64.2348 75.1894 64.325 74.8747 64.4171 74.559C64.4552 74.4344 64.4944 74.3093 64.5336 74.1837L64.5338 74.1833L64.5339 74.1829L64.534 74.1825L64.5341 74.1821C64.5897 74.0045 64.6455 73.8261 64.6991 73.6473C66.0324 74.7155 69.6698 74.257 71.0241 73.6916C75.5344 71.7971 76.7565 65.8838 73.2995 62.7928ZM65.6668 50.2986C65.6864 50.2853 65.7517 50.2815 65.8036 50.3267C65.6731 50.3344 65.6472 50.3118 65.6668 50.2986ZM60.8692 72.1443L60.8669 72.1588C60.8674 72.154 60.8682 72.1491 60.8692 72.1443ZM64.8684 73.0399C64.8663 73.0486 64.8641 73.0571 64.8619 73.0655L64.8684 73.0399ZM64.2881 73.2955L64.2937 73.2991C64.2868 73.2941 64.2836 73.2921 64.2838 73.2923L64.2881 73.2955ZM63.7413 53.7251C63.7473 53.7045 63.7539 53.6848 63.761 53.6657C63.823 53.4002 64.0344 53.1957 64.3925 53.2533C66.9506 53.6666 71.4369 55.1632 70.6589 58.5547C69.8771 61.9586 64.9021 60.8055 62.5948 59.9759C62.248 59.856 62.0404 59.5048 62.1516 59.1417L63.7413 53.7251ZM64.8451 54.699C64.92 54.7144 64.9952 54.7304 65.0716 54.7487C65.6717 54.8913 66.2602 55.0715 66.8297 55.3143C68.0224 55.8027 69.8669 56.8467 69.3174 58.4179C68.68 60.2634 65.3861 59.4861 63.6096 58.912C64.0192 57.5049 64.4279 56.1039 64.8451 54.699ZM61.249 67.6623C63.3128 68.3248 67.3321 69.3417 68.1336 67.2049C68.7843 64.594 64.9346 63.3802 62.6585 62.915L61.249 67.6623ZM69.4555 67.3984C70.2082 63.6571 65.3031 62.0036 62.3837 61.5138C62.0303 61.4604 61.6684 61.5687 61.5495 61.9569L59.7863 67.8957C59.679 68.2463 59.8826 68.61 60.2295 68.7299C62.7438 69.6071 67.9287 70.9852 69.3356 67.7816C69.3672 67.7281 69.3928 67.6664 69.4109 67.5959C69.4368 67.5268 69.4511 67.4608 69.4555 67.3984ZM72.0146 37.5745C72.0022 37.5706 71.9894 37.567 71.9764 37.5637C71.9553 37.5576 71.9345 37.5524 71.9139 37.5482C61.0369 34.8717 49.6941 38.4351 44.0008 48.5035C38.8211 57.6834 39.2623 70.6933 46.9177 78.3923C53.9955 85.5172 65.704 88.0743 75.2586 85.274C84.6939 82.5057 89.6856 73.7613 90.2681 64.2972C91.0239 51.9958 84.0063 40.9776 72.0146 37.5745ZM71.5854 38.841C81.7479 41.7056 88.2635 50.2198 88.9322 60.697C89.475 69.2592 86.1236 78.9988 77.9291 82.8591C69.6731 86.7417 58.9002 85.334 51.4114 80.3569C42.5204 74.4574 39.9417 62.971 43.3575 53.1552C47.5232 41.1584 59.6345 35.8674 71.5854 38.841ZM83.014 50.6808C85.1536 53.445 86.0164 56.8457 85.5467 60.3041C85.4352 61.1603 86.7698 61.1853 86.8774 60.3417C87.3881 56.526 86.3477 52.8107 83.99 49.7742C83.4595 49.0913 82.4834 49.9979 83.014 50.6808ZM86.1137 63.9564L86.0555 63.6098C85.9021 62.7685 87.2035 62.4547 87.353 63.3085L87.4113 63.6551C87.5646 64.4964 86.2632 64.8103 86.1137 63.9564Z" fill="white" fill-opacity="0.14"/>
</svg>
