<svg width="97" height="62" viewBox="0 0 97 62" fill="none" xmlns="http://www.w3.org/2000/svg">
<path fill-rule="evenodd" clip-rule="evenodd" d="M54.3994 4.51648C55.5056 3.90889 56.5889 2.56505 55.6823 1.32068C54.8115 0.13876 53.0804 0.34516 51.9475 0.961696C50.9395 1.50675 49.9631 2.59173 50.5707 3.7872C50.6723 3.98615 50.7971 4.15657 50.9401 4.3007C49.0901 6.81402 47.2392 9.32685 45.3726 11.8319C45.266 11.9753 45.2218 12.1276 45.2236 12.2741C44.4768 12.2294 43.7294 12.1892 42.9812 12.1544C42.5408 12.1342 42.0582 12.0936 41.5535 12.0511L41.5533 12.0511L41.5532 12.0511C39.8592 11.9085 37.9148 11.7448 36.4715 12.2614C35.6099 12.5747 35.2307 13.0636 34.6934 13.7566L34.6933 13.7567L34.6932 13.7568L34.6929 13.7572C34.6017 13.8749 34.5059 13.9984 34.4024 14.1279C33.7303 14.9737 33.0507 15.8135 32.3662 16.6492C32.3489 16.6461 32.3312 16.6435 32.313 16.6414C30.6597 16.4573 29.002 16.271 27.3443 16.0847L27.3433 16.0846L27.3364 16.0838L27.3304 16.0831L27.3295 16.083C25.849 15.9166 24.3685 15.7502 22.8911 15.5854C22.8841 15.4231 22.8569 15.2565 22.8069 15.0862C22.4268 13.7701 20.9677 13.6774 19.8435 14.0083C18.5856 14.384 17.2968 15.4692 17.4495 16.9059C17.611 18.5146 19.4021 18.6515 20.633 18.2805C20.6687 18.2697 20.704 18.2585 20.7387 18.2469L20.7543 18.2415C20.7857 18.2303 20.8154 18.2178 20.8434 18.204C21.4481 17.9415 22.0479 17.5146 22.4409 16.9732C23.9702 17.1437 25.5029 17.316 27.0358 17.4883L27.0451 17.4893L27.0542 17.4904L27.0552 17.4905C28.4652 17.649 29.8752 17.8075 31.2825 17.9646C30.2425 19.2202 29.1947 20.4682 28.1484 21.7145L28.1466 21.7165L28.1459 21.7173L28.1459 21.7174L27.6882 22.2626L27.3202 22.7013L27.3202 22.7013L27.3201 22.7014L27.3201 22.7015L27.32 22.7015L27.32 22.7016L27.3198 22.7017L27.3198 22.7018L26.9518 23.1405C26.9001 23.1224 26.8429 23.1092 26.7801 23.102C25.1268 22.9179 23.4691 22.7316 21.8114 22.5453L21.8091 22.545C20.3244 22.3781 18.8398 22.2113 17.3583 22.046C17.3512 21.8836 17.3241 21.7169 17.2741 21.5465C16.8939 20.2304 15.4349 20.1376 14.3107 20.4686C13.0527 20.8442 11.7639 21.9294 11.9166 23.3661C12.0781 24.9748 13.8693 25.1117 15.1001 24.7407C15.1358 24.7299 15.1711 24.7187 15.2058 24.7071L15.2214 24.7017C15.2529 24.6906 15.2826 24.678 15.3106 24.6642C15.9151 24.4018 16.5148 23.975 16.9078 23.4338C18.4428 23.605 19.9814 23.7779 21.52 23.9508L21.5223 23.9511L21.5254 23.9514C22.9727 24.1141 24.4201 24.2768 25.8644 24.438C24.065 26.5875 22.2737 28.7441 20.522 30.9322C20.4503 30.8948 20.3652 30.8686 20.266 30.8573C18.6127 30.6732 16.9549 30.4868 15.2971 30.3005L15.2959 30.3004C13.8111 30.1335 12.3264 29.9666 10.8448 29.8013C10.8377 29.6389 10.8106 29.4722 10.7606 29.3018C10.3804 27.9856 8.92135 27.8929 7.79718 28.2238C6.53919 28.5995 5.25041 29.6847 5.40306 31.1214C5.56455 32.7301 7.35567 32.867 8.58652 32.496C8.62228 32.4852 8.65757 32.474 8.69234 32.4624L8.70788 32.457C8.73937 32.4459 8.76911 32.4333 8.79713 32.4195C9.40164 32.157 10.0013 31.7303 10.3943 31.1891C11.9284 31.3602 13.4661 31.533 15.0038 31.7058L15.0065 31.7061L15.0077 31.7063C16.5083 31.8749 18.0089 32.0436 19.5062 32.2106C17.9882 34.1364 16.5052 36.0898 15.0782 38.0874C15.063 38.0848 15.0476 38.0826 15.0317 38.0808C13.3787 37.8967 11.7212 37.7105 10.0638 37.5242L10.0587 37.5236L10.0529 37.5229C8.57594 37.3569 7.09899 37.1909 5.62521 37.0265C5.61858 36.8622 5.59135 36.6934 5.54073 36.5208C5.1606 35.2047 3.70152 35.112 2.57735 35.4429C1.31935 35.8186 0.0305822 36.9038 0.183233 38.3405C0.344723 39.9492 2.1359 40.0861 3.36675 39.715C3.40249 39.7043 3.43776 39.6931 3.47251 39.6815L3.4881 39.6761C3.51955 39.6649 3.54924 39.6524 3.57723 39.6386C4.17969 39.377 4.77729 38.9523 5.17036 38.4138C6.69831 38.5842 8.2298 38.7563 9.76129 38.9284L9.76425 38.9288L9.76898 38.9293L9.77398 38.9299C11.2303 39.0936 12.6865 39.2572 14.1398 39.4194C14.0253 39.5843 13.9112 39.7495 13.7976 39.915C13.6504 40.037 13.56 40.2272 13.5874 40.4823C13.6072 40.6712 13.6268 40.8673 13.647 41.0693C13.87 43.2954 14.1635 46.2267 15.5064 47.9196C16.328 48.9472 17.2236 48.9889 18.3784 49.0426L18.3786 49.0427C18.5167 49.0491 18.6586 49.0557 18.8045 49.0642C19.272 49.091 19.7397 49.1162 20.2075 49.14C18.4832 51.4824 16.7575 53.824 15.0185 56.1591C14.3561 56.0677 13.6356 56.2014 13.0409 56.4797C13.0147 56.4923 12.9898 56.5058 12.9662 56.5203C12.9317 56.5336 12.8971 56.5498 12.8625 56.5691L12.8759 56.5646C11.7697 57.1722 10.6864 58.5161 11.5929 59.7604C12.4638 60.9424 14.1949 60.736 15.3278 60.1194C16.3358 59.5744 17.3122 58.4894 16.7046 57.2939C16.6029 57.0948 16.4779 56.9242 16.3349 56.78C18.1846 54.2669 20.0354 51.7544 21.9018 49.2496C21.9089 49.2401 21.9157 49.2305 21.9223 49.2209C24.7972 49.3466 27.6759 49.4247 30.5557 49.4897C28.8696 51.78 27.1819 54.0696 25.4815 56.3528C24.8193 56.2616 24.0989 56.3952 23.5043 56.6735C23.4781 56.6861 23.4532 56.6996 23.4295 56.714C23.3951 56.7274 23.3605 56.7436 23.3259 56.7629L23.3392 56.7584C22.2331 57.366 21.1498 58.7099 22.0563 59.9542C22.9272 61.1361 24.6582 60.9297 25.7911 60.3132C26.7992 59.7681 27.7756 58.6832 27.168 57.4877C27.0662 57.2885 26.9412 57.1179 26.798 56.9736C28.6269 54.4888 30.4569 52.0045 32.302 49.5277C32.7944 49.5382 33.2868 49.5484 33.7792 49.5587L33.787 49.5589L33.7996 49.5591L33.8123 49.5594L33.8251 49.5597L33.838 49.5599C35.1494 49.5872 36.4609 49.6146 37.7722 49.6451C39.0046 49.6761 40.237 49.7054 41.4696 49.7338C39.8693 51.9072 38.2671 54.0797 36.6534 56.2465C35.9934 56.1575 35.2765 56.2912 34.6844 56.5683C34.6582 56.5809 34.6333 56.5944 34.6097 56.6088C34.5752 56.6222 34.5406 56.6384 34.506 56.6577L34.5194 56.6532C33.4132 57.2608 32.3299 58.6047 33.2365 59.849C34.1073 61.0309 35.8384 60.8245 36.9713 60.208C37.9793 59.6629 38.9557 58.578 38.3481 57.3825C38.2451 57.1808 38.1183 57.0085 37.9729 56.8631C39.7142 54.4973 41.4565 52.132 43.2119 49.7732C44.8671 49.8102 46.5226 49.8458 48.1786 49.8814L48.1818 49.8815L48.185 49.8816L48.1882 49.8816L48.1915 49.8817L48.1947 49.8818L48.1979 49.8818L48.2011 49.8819L48.2043 49.882L48.2091 49.8821L48.2103 49.8821L48.2115 49.8821L48.2127 49.8822L48.2308 49.8825C49.4067 49.9078 50.5828 49.9331 51.7593 49.9589C49.9411 52.4291 48.122 54.8988 46.2882 57.3612C45.6258 57.2699 44.9054 57.4036 44.3107 57.6819C44.2845 57.6944 44.2596 57.7079 44.236 57.7224C44.2015 57.7358 44.1669 57.752 44.1323 57.7712L44.1456 57.7668C43.0395 58.3744 41.9561 59.7182 42.8627 60.9626C43.7336 62.1445 45.4646 61.9381 46.5976 61.3215C47.6056 60.7765 48.582 59.6915 47.9744 58.496C47.8727 58.2969 47.7477 58.1263 47.6046 57.9821C49.4544 55.4689 51.3052 52.9563 53.1717 50.4514C53.2821 50.3029 53.3256 50.1448 53.3203 49.9935C54.7273 50.0249 56.1348 50.0574 57.543 50.0917C57.7822 50.099 58.0232 50.1136 58.2646 50.1282C59.176 50.1832 60.0938 50.2387 60.9472 49.9065C61.9709 49.5105 62.9584 48.7074 63.874 47.8235C65.453 47.9995 67.036 48.1774 68.6189 48.3554C70.1038 48.5223 71.5887 48.6892 73.0704 48.8545C73.0775 49.017 73.1046 49.1839 73.1547 49.3544C73.5348 50.6705 74.9939 50.7633 76.1181 50.4323C77.3761 50.0567 78.6648 48.9715 78.5122 47.5347C78.3507 45.9261 76.5596 45.7891 75.3288 46.1602C75.293 46.1709 75.2577 46.1822 75.2229 46.1938L75.2074 46.1991C75.1759 46.2103 75.1461 46.2229 75.1181 46.2367C74.5137 46.4991 73.9142 46.9257 73.5212 47.4667C71.9926 47.2963 70.4605 47.1241 68.9284 46.9519L68.9185 46.9507L68.9092 46.9497C67.653 46.8085 66.3967 46.6673 65.1424 46.5271L65.2989 46.3614L65.2991 46.3613C65.6183 46.0233 65.9238 45.6998 66.2137 45.4096C67.4335 44.188 68.6326 42.9451 69.8159 41.6864C69.8611 41.7005 69.9102 41.7108 69.9634 41.7169C71.6166 41.901 73.2743 42.0874 74.932 42.2737C76.4161 42.4405 77.9001 42.6073 79.381 42.7725C79.3889 42.9307 79.4159 43.0931 79.4646 43.2589C79.8447 44.575 81.3038 44.6678 82.428 44.3368C83.686 43.9612 84.9747 42.876 84.8221 41.4392C84.6606 39.8306 82.8694 39.6936 81.6386 40.0647C81.6029 40.0754 81.5675 40.0867 81.5328 40.0983L81.5172 40.1036C81.4857 40.1148 81.4561 40.1273 81.4281 40.1411C80.819 40.4056 80.2149 40.8367 79.8221 41.3837C78.2912 41.213 76.7568 41.0405 75.2224 40.868L75.2214 40.8679L75.2204 40.8678L75.2194 40.8677L75.2184 40.8676L75.2174 40.8675L75.2164 40.8674L75.2154 40.8672L75.2144 40.8671L75.2134 40.867L75.2124 40.8669C73.8134 40.7097 72.4145 40.5524 71.0183 40.3965C72.9624 38.294 74.8681 36.1531 76.7588 33.9989C78.3143 34.1723 79.8736 34.3475 81.4328 34.5228C82.9181 34.6897 84.4035 34.8567 85.8856 35.022C85.8926 35.1844 85.9198 35.351 85.9698 35.5214C86.3499 36.8375 87.809 36.9302 88.9332 36.5993C90.1912 36.2236 91.4799 35.1385 91.3273 33.7017C91.1658 32.0931 89.3747 31.9561 88.1439 32.3272C88.126 32.3325 88.1082 32.338 88.0906 32.3436C88.0729 32.3493 88.0554 32.355 88.038 32.3608L88.0225 32.3661C87.991 32.3773 87.9612 32.3899 87.9332 32.4037C87.3286 32.6662 86.7289 33.093 86.3359 33.6342C84.8038 33.4634 83.2681 33.2908 81.7324 33.1182L81.7232 33.1171C80.45 32.974 79.1768 32.8309 77.9056 32.6888C78.6416 31.8463 79.376 31.0024 80.1102 30.1588L80.7488 29.4252C81.1315 28.983 81.5774 28.531 82.0342 28.068L82.0343 28.0679L82.0344 28.0679L82.0344 28.0678L82.0345 28.0677L82.0346 28.0676L82.0347 28.0676L82.0347 28.0675L82.0348 28.0674L82.0349 28.0674L82.0349 28.0673L82.035 28.0672L82.0351 28.0671L82.0352 28.0671L82.0352 28.067L82.0353 28.0669C82.25 27.8493 82.4671 27.6292 82.6811 27.4066C84.0718 27.5619 85.465 27.7185 86.8582 27.8751C88.3436 28.042 89.8289 28.209 91.311 28.3743C91.3181 28.5367 91.3452 28.7033 91.3952 28.8737C91.7753 30.1898 93.2344 30.2825 94.3586 29.9516C95.6166 29.5759 96.9054 28.4908 96.7527 27.054C96.5912 25.4454 94.8001 25.3084 93.5692 25.6795C93.5335 25.6903 93.4982 25.7015 93.4634 25.7131L93.4478 25.7185C93.4164 25.7296 93.3867 25.7421 93.3587 25.7559C92.7541 26.0184 92.1544 26.4452 91.7614 26.9865C90.2355 26.8164 88.7062 26.6445 87.1768 26.4726L87.1678 26.4716L87.1579 26.4705L87.1486 26.4694C86.0452 26.3454 84.9418 26.2214 83.8397 26.098C84.095 25.7721 84.324 25.4406 84.5118 25.1032C85.6928 22.9829 84.6821 19.5119 83.6144 17.518C82.6242 15.6606 79.9903 15.3597 77.5837 15.2506C79.4954 12.6533 81.4072 10.0561 83.3353 7.46708C83.9977 7.55845 84.7183 7.4248 85.313 7.14646C85.3392 7.13393 85.3641 7.12039 85.3877 7.10596C85.4222 7.09259 85.4568 7.07638 85.4914 7.05711L85.478 7.06159C86.5842 6.45399 87.6675 5.11014 86.761 3.86577C85.8901 2.68385 84.1591 2.89025 83.0262 3.50679C82.0182 4.05184 81.0417 5.13681 81.6493 6.33229C81.751 6.53139 81.876 6.70191 82.019 6.84611C80.1692 9.35932 78.3183 11.8721 76.4517 14.3769C76.2449 14.6555 76.273 14.9674 76.417 15.206C75.7721 15.1825 75.1701 15.1563 74.6534 15.0965C72.3292 14.8298 70.005 14.5682 67.6798 14.3151C69.4064 11.9696 71.1344 9.62478 72.8757 7.28662C73.5383 7.37816 74.2591 7.24451 74.854 6.96609C74.8802 6.95355 74.9051 6.94002 74.9287 6.92559C74.9632 6.91222 74.9978 6.896 75.0325 6.87672L75.0191 6.8812C76.1252 6.27361 77.2086 4.92975 76.302 3.68538C75.4312 2.50346 73.7001 2.70988 72.5672 3.32641C71.5592 3.87147 70.5827 4.95643 71.1903 6.15191C71.2919 6.35083 71.4167 6.52122 71.5597 6.66534C69.7242 9.15901 67.8877 11.6522 66.0359 14.1377C63.0294 13.8161 60.0208 13.5104 57.0081 13.2284C58.8232 10.7624 60.6392 8.29688 62.4699 5.8387C63.1324 5.93022 63.8532 5.79657 64.4481 5.51815C64.4743 5.5056 64.4992 5.49206 64.5229 5.47762C64.5573 5.46426 64.5919 5.44805 64.6265 5.42879L64.6132 5.43325C65.7193 4.82566 66.8026 3.48181 65.8961 2.23745C65.0252 1.05553 63.2942 1.26194 62.1613 1.87847C61.1532 2.42353 60.1768 3.5085 60.7844 4.70397C60.886 4.90291 61.0108 5.07332 61.1538 5.21744C59.3038 7.73077 57.4528 10.2436 55.5862 12.7486C55.5053 12.8575 55.4604 12.9715 55.4442 13.0842C54.8776 13.0328 54.3107 12.9823 53.7437 12.9327C51.4112 12.7254 49.0825 12.5293 46.7503 12.3716C48.5801 9.88562 50.4107 7.40003 52.2562 4.92193C52.9187 5.01343 53.6395 4.87978 54.2344 4.60137C54.2606 4.58884 54.2855 4.57531 54.3091 4.56087C54.3436 4.54751 54.3782 4.53129 54.4128 4.51202L54.3994 4.51648ZM75.6658 47.5633L75.6669 47.5628L75.6789 47.5589L75.6658 47.5633ZM75.6658 47.5633C76.0808 47.4247 77.16 47.1386 77.0668 47.8837C76.9824 48.5219 76.2018 48.9017 75.662 49.0672C75.3275 49.1789 74.645 49.3623 74.5197 48.8984C74.3542 48.2693 75.2195 47.7421 75.6655 47.5634L75.6658 47.5633ZM63.5042 46.4722C64.8971 45.2301 66.2139 43.6737 67.3596 42.3196L67.3597 42.3195C67.9446 41.6283 68.4848 40.9897 68.9679 40.4725C72.5094 36.6843 75.9263 32.778 79.3403 28.8751C79.9622 28.1641 80.5841 27.4531 81.2066 26.743L81.3345 26.5972C81.3763 26.2964 81.5889 26.0002 81.9233 25.9256C83.1261 24.5308 83.7889 23.4854 83.3089 21.146L83.2899 21.0545C82.989 19.6021 82.7583 18.489 81.9478 17.8332C81.9251 17.8794 81.8966 17.9251 81.8618 17.9698C74.8671 27.0016 67.3412 35.6008 59.3331 43.7363C59.3089 43.7612 59.2842 43.7837 59.2589 43.8041C59.2469 43.832 59.2331 43.859 59.2176 43.8849C59.4935 44.5207 59.7677 45.1557 60.0419 45.7906L60.0453 45.7983C60.3889 46.5942 60.7327 47.39 61.0797 48.1876C61.8133 47.8229 62.5411 47.3027 63.2508 46.6939C63.3171 46.6037 63.4023 46.5265 63.5042 46.4722ZM81.9755 41.4678L81.9767 41.4674L81.9888 41.4634L81.9755 41.4678ZM81.9755 41.4678C82.3771 41.3337 83.4698 41.0431 83.3766 41.7883C83.2923 42.4264 82.5117 42.8062 81.9719 42.9717C81.6374 43.0834 80.9548 43.2668 80.8296 42.8029C80.6641 42.1738 81.5293 41.6467 81.9754 41.4679L81.9755 41.4678ZM88.4809 33.7303L88.482 33.7298L88.494 33.7259L88.4809 33.7303ZM88.4809 33.7303C88.8825 33.5961 89.9751 33.3056 89.8819 34.0507C89.7975 34.6889 89.0169 35.0687 88.4772 35.2342C88.1426 35.3459 87.4601 35.5293 87.3348 35.0653C87.1693 34.4363 88.0346 33.9091 88.4807 33.7304L88.4809 33.7303ZM93.9062 27.0826L93.9074 27.0821L93.9194 27.0782L93.9062 27.0826ZM93.9062 27.0826C94.3213 26.944 95.4005 26.6579 95.3073 27.403C95.2229 28.0412 94.4424 28.421 93.9026 28.5865C93.568 28.6982 92.8855 28.8816 92.7602 28.4176C92.5947 27.7886 93.46 27.2615 93.906 27.0827L93.9062 27.0826ZM21.4419 15.5423C21.6074 16.1714 20.7422 16.6985 20.2961 16.8773C19.8812 17.0159 18.8017 17.3021 18.8949 16.5569C18.9792 15.9187 19.7598 15.5389 20.2996 15.3735C20.6341 15.2617 21.3167 15.0783 21.4419 15.5423ZM20.2961 16.8773L20.2948 16.8778L20.2827 16.8817L20.2961 16.8773ZM14.7632 23.3375L14.7631 23.3376C14.3614 23.4717 13.2688 23.7623 13.362 23.0172C13.4463 22.379 14.2269 21.9992 14.7667 21.8337C15.1013 21.7219 15.7838 21.5386 15.909 22.0025C16.0745 22.6316 15.2093 23.1587 14.7632 23.3375ZM14.7631 23.3376L14.7619 23.338L14.7499 23.342L14.7631 23.3376ZM8.24968 31.0928L8.24948 31.0928C7.83447 31.2315 6.75527 31.5176 6.84846 30.7724C6.93281 30.1343 7.71341 29.7544 8.25319 29.589C8.58775 29.4772 9.27027 29.2938 9.39551 29.7578C9.56101 30.3869 8.69575 30.914 8.24968 31.0928ZM8.24948 31.0928L8.24836 31.0933L8.23637 31.0972L8.24948 31.0928ZM4.17568 36.9769C4.34118 37.6059 3.47596 38.133 3.02989 38.3118C2.61503 38.4504 1.53542 38.7367 1.62862 37.9915C1.71298 37.3533 2.49358 36.9735 3.03336 36.8081C3.36792 36.6963 4.05044 36.5129 4.17568 36.9769ZM3.02989 38.3118L3.02854 38.3124L3.0165 38.3163L3.02989 38.3118ZM54.4112 2.05778C54.9625 2.47685 54.108 3.03707 53.7053 3.26924C53.2169 3.48287 52.192 3.80234 51.8865 3.18394C51.6766 2.77801 52.3099 2.40276 52.6132 2.24192C53.0904 1.97833 53.9112 1.67436 54.4112 2.05778ZM64.6249 2.97456C65.1761 3.39359 64.3219 3.95376 63.9191 4.18598C63.4307 4.3996 62.4057 4.71915 62.1002 4.10071C61.8903 3.69478 62.5236 3.31953 62.8269 3.15869C63.3042 2.8951 64.1249 2.59114 64.6249 2.97456ZM75.0308 4.4225C75.5821 4.84157 74.7277 5.40178 74.3249 5.63396C73.8365 5.84758 72.8117 6.16705 72.5062 5.54864C72.2962 5.14272 72.9295 4.76748 73.2328 4.60664C73.7101 4.34305 74.5309 4.03908 75.0308 4.4225ZM66.3267 15.3577C66.4532 15.4143 66.5914 15.4328 66.7241 15.3977C71.3821 15.8693 76.017 16.4584 80.5668 17.2568L80.598 17.2624C73.6749 26.1822 66.2458 34.675 58.3194 42.7234C58.1564 42.7026 57.9883 42.7319 57.8454 42.8011C43.6876 43.4797 29.5435 42.8606 15.5018 40.914C15.3396 40.8921 15.197 40.9178 15.0772 40.9757C15.0654 40.8547 15.0539 40.7375 15.0425 40.6248C18.1637 36.1139 21.5886 31.8387 25.0905 27.6234C26.2648 26.2068 27.4184 24.728 28.5786 23.2409C30.9066 20.2567 33.2608 17.2388 35.8617 14.6223C37.7402 12.7341 41.8527 13.2368 45.0295 13.6251C45.8268 13.7225 46.5651 13.8128 47.1943 13.8562C47.9276 13.9076 48.6624 13.9587 49.3987 14.0099L49.3987 14.0099L49.3988 14.0099C54.9993 14.3992 60.6788 14.7941 66.3267 15.3577ZM85.4898 4.60287C86.0411 5.02195 85.1867 5.58216 84.7839 5.81433C84.2955 6.02796 83.2706 6.34743 82.9652 5.72902C82.7552 5.3231 83.3885 4.94785 83.6918 4.78701C84.1691 4.52342 84.9899 4.21945 85.4898 4.60287ZM44.1339 60.2255C43.5827 59.8064 44.437 59.2462 44.8398 59.014C45.3281 58.8004 46.3531 58.4809 46.6585 59.0993C46.8685 59.5052 46.2352 59.8805 45.9319 60.0413C45.4546 60.3049 44.6339 60.6089 44.1339 60.2255ZM34.5076 59.1119C33.9564 58.6929 34.8107 58.1327 35.2135 57.9005C35.7018 57.6869 36.7268 57.3673 37.0323 57.9858C37.2422 58.3917 36.6089 58.7669 36.3056 58.9278C35.8284 59.1914 35.0076 59.4953 34.5076 59.1119ZM43.4379 48.3484C43.1857 48.0965 42.7901 48.0125 42.509 48.3276C36.3827 48.1903 30.2663 48.0499 24.1401 47.8469C23.5738 47.8283 22.9254 47.8509 22.2463 47.8746C20.6884 47.9288 18.9691 47.9887 17.7103 47.57C16.009 46.9885 15.4773 44.4662 15.2192 42.327C29.3373 44.2709 43.5659 44.9209 57.8084 44.2393C58.0992 44.909 58.388 45.5776 58.6767 46.2463C59.0251 47.0529 59.3734 47.8594 59.7252 48.6678C59.6281 48.6873 59.5309 48.7035 59.4339 48.7161C56.4928 49.095 53.2769 48.8679 50.1438 48.6467L50.1438 48.6467L50.1437 48.6467L50.1437 48.6467L50.1437 48.6467C48.5668 48.5353 47.0109 48.4255 45.5216 48.3951L43.5618 48.3511L43.4379 48.3484ZM23.3275 59.2171C22.7763 58.7981 23.6305 58.2379 24.0333 58.0057C24.5216 57.7921 25.5467 57.4725 25.8522 58.091C26.0621 58.4969 25.4288 58.8721 25.1255 59.033C24.6482 59.2966 23.8274 59.6005 23.3275 59.2171ZM12.8641 59.0233C12.3129 58.6043 13.1672 58.0441 13.57 57.8119C14.0583 57.5983 15.0833 57.2787 15.3887 57.8972C15.5987 58.3031 14.9654 58.6783 14.6621 58.8392C14.1849 59.1028 13.3641 59.4067 12.8641 59.0233ZM35.1066 32.3559C41.0736 32.7348 47.0213 33.172 52.9822 33.6202C52.7395 33.8774 52.4973 34.1347 52.2557 34.3923C51.6181 35.0665 52.7073 36.0118 53.3316 35.342L53.3717 35.3286C53.6543 35.0286 54.1203 34.5943 54.6886 34.0646L54.689 34.0643L54.6894 34.0639C55.2042 33.5841 55.8029 33.0261 56.4252 32.4189C57.3276 32.4896 58.2307 32.5638 59.131 32.6376L59.132 32.6377L59.133 32.6378C59.7374 32.6874 60.3405 32.7369 60.9413 32.7852C61.856 32.8515 62.1629 31.4546 61.2304 31.3794C60.1721 31.2978 59.1121 31.2108 58.056 31.1242L58.0556 31.1241L58.0542 31.124L57.7305 31.0975C58.3759 30.4154 59.002 29.7023 59.5424 28.9901C60.1928 29.0463 60.8408 29.1014 61.4888 29.1564L61.4919 29.1567C62.2995 29.2253 63.1072 29.294 63.9193 29.3648C64.8385 29.4445 65.1409 28.0343 64.2084 27.959C63.3963 27.8882 62.5886 27.8195 61.781 27.7509L61.7745 27.7503C61.3346 27.713 60.8947 27.6756 60.4541 27.6378C61.6401 25.5902 61.7275 23.7237 59.0479 22.8395C55.8526 21.7825 52.9942 22.791 50.4908 24.6045C49.9685 22.9917 46.5719 22.9585 44.8896 23.2108C42.2459 23.6124 40.0949 24.9302 38.203 26.6397L33.6175 26.2031C32.7117 26.1189 32.4092 27.5292 33.3284 27.6089C34.1205 27.6865 34.9114 27.7607 35.7023 27.8349C36.0912 27.8714 36.4802 27.9079 36.8693 27.9448C36.2384 28.6072 35.6329 29.3029 35.0425 30.0084C34.381 29.9565 33.719 29.9029 33.057 29.8492L33.0558 29.8492L33.0547 29.8491C32.2222 29.7816 31.3897 29.7142 30.5584 29.6501C29.6436 29.5838 29.3367 30.9807 30.2693 31.0559C31.1014 31.1201 31.9347 31.1876 32.768 31.2551L32.7741 31.2556C33.1629 31.2871 33.5518 31.3185 33.9405 31.3497L33.6716 31.681L33.6715 31.6812C33.2583 32.1907 32.8486 32.6957 32.4386 33.1877C31.8412 33.8931 32.9216 34.8563 33.5146 34.1374L33.5101 34.124C33.6535 33.9517 33.7969 33.7791 33.9404 33.6064L33.9411 33.6056L33.9418 33.6047L33.9418 33.6047L33.9419 33.6046C34.2914 33.1838 34.6417 32.7621 34.9945 32.3418C35.0303 32.3489 35.0677 32.3536 35.1066 32.3559ZM48.6997 26.0778C48.7149 26.0041 48.7445 25.9278 48.791 25.8499C49.9599 23.888 44.8207 24.7368 43.8451 24.898C43.7308 24.9169 43.6736 24.9263 43.6904 24.9207C41.8079 25.4752 40.5012 26.4623 39.0877 27.842C38.0557 28.8434 37.0837 29.907 36.1408 30.9949C38.6954 31.1608 41.2473 31.3385 43.7984 31.5219L44.0694 31.1919C45.4045 29.5656 46.9505 27.6823 48.6997 26.0778ZM45.6317 31.5387L45.5432 31.6482C47.2477 31.7722 48.9521 31.8982 50.6567 32.0242L50.6688 32.0251C51.8453 32.112 53.0219 32.1989 54.1988 32.2853C54.2133 32.2863 54.2275 32.2877 54.2416 32.2895C55.3794 31.0886 56.5177 29.8864 57.6329 28.6681C57.7523 28.5369 57.8664 28.4158 57.9745 28.3011L57.9746 28.3011L57.9746 28.301C58.6943 27.5375 59.148 27.0562 59.1123 25.7489C59.6199 24.1511 58.8654 23.5849 56.8534 24.019C56.5322 24.0371 56.1976 24.0596 55.8629 24.0821C51.308 24.5161 48.3513 28.1741 45.6317 31.5387Z" fill="white" fill-opacity="0.15"/>
</svg>
