<svg width="133" height="133" viewBox="0 0 133 133" fill="none" xmlns="http://www.w3.org/2000/svg">
<path fill-rule="evenodd" clip-rule="evenodd" d="M60.2819 36.4654C59.1418 36.9228 57.9703 37.3769 56.7824 37.8373C50.5959 40.2353 43.9626 42.8065 38.9928 46.922C34.3828 50.7537 31.7488 56.246 30.6773 62.0368C30.5021 62.2211 30.4725 62.4971 30.5543 62.7445C30.3874 63.7712 30.2687 64.8055 30.1959 65.8398C29.2785 78.7916 35.5062 97.0144 49.6831 100.359C54.7448 101.557 60.393 100.324 65.4593 99.2185L65.4594 99.2185L65.4595 99.2184L65.4596 99.2184C65.9264 99.1165 66.3882 99.0158 66.8441 98.918C71.6126 97.8912 76.3733 96.6286 80.9597 94.9574C87.5823 92.9578 93.7117 89.1532 98.1633 84.1553C106.416 74.895 105.903 62.2745 100.126 51.7937C92.6435 38.2145 77.6857 31.2182 62.66 35.8183C62.6403 35.8243 62.6211 35.8307 62.6026 35.8377C61.9988 36.0422 61.4027 36.2611 60.8148 36.494C60.6657 36.4056 60.4744 36.384 60.2537 36.4734L60.2819 36.4654ZM31.4746 67.6959C31.5002 66.1827 31.6229 64.68 31.8503 63.2048C34.8673 62.5847 37.8348 61.7892 40.7681 60.835C40.6264 61.9419 40.5475 63.0721 40.535 64.2236C37.5206 65.3836 34.4937 66.5472 31.4746 67.6959ZM31.483 69.2871C31.5217 70.7062 31.6429 72.129 31.8404 73.5415C33.304 72.9211 34.771 72.3027 36.2381 71.6842L36.2384 71.6841C37.8157 71.0192 39.393 70.3543 40.9658 69.687C40.7575 68.4396 40.6226 67.1865 40.5649 65.9368L40.5594 65.8103L31.483 69.2871ZM32.9081 78.6953C32.5784 77.499 32.3014 76.2815 32.0813 75.0522C33.6009 74.4078 35.1244 73.7655 36.648 73.1233C38.1835 72.476 39.719 71.8287 41.2505 71.1792C41.516 72.417 41.853 73.6455 42.2576 74.8553C42.1507 74.8588 42.0389 74.8868 41.9257 74.9454C39.0044 76.4136 36.0054 77.6572 32.9081 78.6953ZM33.3277 80.1164C33.7696 81.5188 34.2838 82.8858 34.8634 84.2012L44.3449 79.8035C43.7422 78.6322 43.2051 77.4276 42.738 76.1997C42.7258 76.2065 42.7133 76.2131 42.7005 76.2195C39.6607 77.7363 36.5467 79.041 33.3277 80.1164ZM37.4773 89.0937C36.7588 87.9746 36.0933 86.7869 35.4872 85.5454L45.052 81.109C45.788 82.4019 46.6058 83.6475 47.4994 84.8313L37.6592 88.9882C37.5909 89.0172 37.5304 89.0529 37.4773 89.0937ZM38.3114 90.3249C39.2927 91.6953 40.4043 92.9889 41.6319 94.1452L51.9014 89.595C50.6598 88.5017 49.5032 87.3032 48.44 86.0203C48.389 86.0585 48.3313 86.0919 48.2666 86.1194L38.3114 90.3249ZM46.9929 97.8346C45.516 97.1519 44.1326 96.2614 42.8564 95.2201L53.1688 90.6508C54.2214 91.4795 55.3281 92.2344 56.4842 92.9047C55.0416 93.6552 53.6004 94.4029 52.1593 95.1506L52.1564 95.1521L52.1545 95.1531L52.1452 95.158L52.1448 95.1581L52.1445 95.1583L52.1442 95.1585L52.1438 95.1587C50.4333 96.0462 48.7228 96.9336 47.0098 97.8257L46.9929 97.8346ZM48.8281 98.5567C50.4168 99.0748 52.098 99.3505 53.857 99.3225C54.2484 99.3162 54.6411 99.305 55.035 99.2891C55.0857 99.225 55.1506 99.1658 55.2311 99.1142C57.2878 97.7785 59.3337 96.4459 61.3782 95.1136C60.2408 94.7368 59.1375 94.2816 58.0717 93.7557L58.0554 93.7644C56.3418 94.6566 54.6309 95.5444 52.9199 96.4321L52.9094 96.4376L52.9067 96.439L52.9034 96.4406C51.5454 97.1452 50.1874 97.8498 48.8281 98.5567ZM63.6419 98.2875C61.758 98.6339 59.8738 98.906 58.006 99.085C59.6688 98.0018 61.3337 96.9179 63.0057 95.8321C63.0914 95.7771 63.1594 95.7135 63.2115 95.6445C64.2459 95.9013 65.2937 96.1003 66.3504 96.2437L65.6455 96.7201C65.0797 97.1023 64.5139 97.4845 63.9516 97.8658C63.7809 97.9799 63.6828 98.1291 63.6419 98.2875ZM67.0182 97.5901C68.4337 97.2669 69.8433 96.9079 71.2399 96.5209C70.297 96.539 69.3555 96.5171 68.4186 96.4536C68.3729 96.6016 68.276 96.7401 68.1154 96.8476C67.7509 97.0947 67.3848 97.3423 67.0182 97.5901ZM32.1386 61.6151C35.1433 60.961 38.105 60.1515 41.0307 59.1742C41.3171 57.6551 41.7235 56.184 42.24 54.7666C40.9572 55.1745 39.6718 55.581 38.3865 55.9874C36.8089 56.4864 35.2312 56.9853 33.6581 57.4868C33.5378 57.525 33.4265 57.5338 33.3259 57.5194C32.8256 58.8428 32.4321 60.2132 32.1386 61.6151ZM42.9481 53.0099C43.7042 51.3025 44.6245 49.6821 45.6899 48.16C42.6506 49.3036 39.6049 50.4587 36.5592 51.614C35.5715 52.9193 34.7398 54.3196 34.0536 55.7913C35.3591 55.3762 36.6673 54.9625 37.9754 54.5488L37.9755 54.5487L37.9756 54.5487L37.9757 54.5487L37.9758 54.5486L37.9759 54.5486L37.976 54.5486L37.9761 54.5485L37.9762 54.5485L37.9763 54.5485L37.9764 54.5485L37.9765 54.5484L37.9766 54.5484C39.5543 54.0495 41.132 53.5505 42.7051 53.0491C42.7909 53.0218 42.8721 53.0095 42.9481 53.0099ZM38.6927 49.1886L38.6434 49.2371C41.3124 48.2308 43.9858 47.2168 46.6591 46.2028C46.8603 46.1248 47.037 46.1375 47.1798 46.2079C48.7744 44.2864 50.6147 42.5504 52.6549 41.0269C47.527 43.0963 42.4081 45.545 38.6927 49.1886ZM63.1997 37.2179C75.9374 33.3745 88.7487 38.0866 96.4915 48.8327C102.874 57.6919 105.82 70.3365 99.4946 79.9934C93.2645 89.5012 81.0166 95.2319 69.7851 94.9991C56.3593 94.7201 45.8837 84.2355 42.8615 71.5364C39.1786 56.0359 48.4328 42.2044 63.0739 37.2715C63.1191 37.2563 63.161 37.2384 63.1997 37.2179ZM43.9496 66.5751C42.9891 53.4566 51.6199 43.0057 63.6649 38.919L63.679 38.915L63.7062 38.9067C63.7139 38.9043 63.7216 38.9019 63.7292 38.8997C77.0852 34.8468 90.3706 40.985 97.0946 53.0393C102.39 62.5283 102.816 73.9841 95.2491 82.3321C87.8433 90.497 75.4492 95.0186 64.5964 92.5272C52.9478 89.8659 44.7784 78.1601 43.9496 66.5751ZM64.1109 40.3474L64.103 40.35C50.8889 44.8307 42.6655 57.4078 46.2509 71.3344C49.1252 82.5503 58.4816 91.5691 70.354 91.6957C80.4028 91.7926 91.3748 86.5625 96.7639 77.9044C102.099 69.3227 99.323 58.1855 93.6752 50.4593C86.7397 40.9872 75.3865 36.9168 64.1109 40.3474ZM67.7291 66.68C65.5632 66.1054 63.4077 65.4981 61.2595 64.875C64.1473 62.8621 66.9197 60.7036 69.5791 58.4075C69.702 58.8944 69.8247 59.3814 69.9474 59.8684L69.9513 59.8842L69.9514 59.8844C70.6185 62.533 71.2856 65.1812 71.9984 67.8151C71.084 67.712 69.7667 67.3029 68.7394 66.9838L68.7394 66.9838L68.7393 66.9837L68.7392 66.9837C68.3476 66.8621 67.9981 66.7536 67.7291 66.68ZM65.9403 45.2158C64.294 51.2332 62.6374 57.2448 60.9797 63.2558C63.8285 61.2484 66.5594 59.0971 69.1699 56.7934C68.1804 52.9087 67.1522 49.0348 65.9403 45.2158ZM73.4528 69.2173L73.482 69.2055C74.6032 68.7406 75.8067 67.2092 76.7848 65.9645L76.7848 65.9645C77.1395 65.5131 77.4646 65.0994 77.7453 64.7881L77.8217 64.7039L77.8217 64.7039L77.8218 64.7038L77.8219 64.7037C79.7015 62.6325 81.6225 60.5157 83.1651 58.1651C83.4229 57.7741 83.2468 57.4032 82.9376 57.2156C82.914 57.194 82.8886 57.1733 82.8613 57.1535C76.7735 52.7558 71.2969 47.6654 66.4333 41.9428C66.0487 41.5032 65.3251 41.8009 65.1917 42.2965C63.1491 49.7029 61.1065 57.1094 59.0815 64.5257C58.6693 64.8547 58.661 65.6719 59.3373 65.8672L59.3131 65.8893C59.8023 66.0289 60.2913 66.1689 60.7803 66.3088C63.5269 67.095 66.2725 67.8809 69.0515 68.5914C69.3172 68.6596 69.6094 68.7499 69.9172 68.845C70.848 69.1325 71.9214 69.4642 72.8385 69.3644C73.0497 69.3988 73.2777 69.3432 73.4528 69.2173ZM73.4449 67.4325C72.7293 64.7898 72.0599 62.1325 71.3905 59.4748L71.3904 59.4745L71.3904 59.4744L71.3904 59.4743C71.2736 59.0105 71.1567 58.5466 71.0396 58.0828C74.2865 58.3702 77.5252 58.661 80.7758 58.9588C79.7385 60.3208 78.5937 61.6068 77.4561 62.8849L77.4561 62.8849L77.4561 62.8849L77.4561 62.8849L77.4561 62.885L77.4561 62.885L77.456 62.885L77.456 62.885L77.456 62.8851L77.456 62.8851L77.456 62.8851L77.456 62.8851L77.4559 62.8851L77.4559 62.8852L77.4559 62.8852L77.4559 62.8852L77.4558 62.8853L77.4558 62.8853L77.4558 62.8854L77.4557 62.8854L77.253 63.1132C76.939 63.4627 76.5796 63.9288 76.1904 64.4335C75.3596 65.5109 74.3934 66.7639 73.4449 67.4325ZM80.7952 57.4727C76.0164 53.8934 71.6204 49.922 67.6046 45.523C68.7379 49.1677 69.7125 52.8597 70.6541 56.5609C74.0398 56.8712 77.4126 57.1737 80.7952 57.4727ZM78.2925 85.7731L60.8882 71.9342C60.7345 71.868 60.6289 71.762 60.5658 71.6368C60.4106 71.4095 60.4444 71.1481 60.5832 70.9392C60.7236 70.6574 61.0199 70.4523 61.4151 70.5379C62.5353 70.7756 63.6564 71.0168 64.7776 71.258C65.8987 71.4992 67.0199 71.7404 68.14 71.9781C68.7011 72.1004 69.2611 72.2193 69.8211 72.3381C70.3812 72.457 70.9414 72.5758 71.5025 72.6982C71.6789 72.7314 72.4423 72.999 73.107 73.2321C73.6574 73.425 74.1401 73.5943 74.1657 73.587C74.7505 73.3988 75.5195 72.375 76.1209 71.5746C76.3672 71.2467 76.5854 70.9563 76.7512 70.7761C77.3892 70.0809 78.028 69.3843 78.6674 68.6869L78.6706 68.6835C80.3284 66.8756 81.9905 65.063 83.6547 63.2577C84.167 62.7 85.1035 63.2569 84.9236 63.964C84.027 67.5369 83.1279 71.1143 82.2288 74.6917C81.3297 78.2692 80.4306 81.8466 79.5341 85.4195C79.3966 86.0078 78.7235 86.108 78.2925 85.7731ZM64.2275 72.693L64.7531 72.8055C65.9836 73.069 67.2141 73.3324 68.449 73.5984C68.9157 73.6983 69.5241 73.8877 70.1889 74.0946L70.1889 74.0946C71.4882 74.499 73.0035 74.9707 74.0996 74.9732C74.7284 76.6167 75.3552 78.2637 75.982 79.9107C76.3691 80.9279 76.7562 81.9451 77.1438 82.9614C74.9469 81.2141 72.7506 79.4684 70.5542 77.7226L70.5427 77.7135C68.4378 76.0404 66.3328 74.3674 64.2275 72.693ZM78.6629 82.7615C79.3686 79.9511 80.0755 77.1385 80.7824 74.3258C81.4399 71.7094 82.0975 69.0929 82.7541 66.4782C82.0954 67.1958 81.4362 67.9131 80.7769 68.6304C79.4524 70.0716 78.1278 71.5127 76.8078 72.9564C76.6745 73.104 76.5343 73.2824 76.386 73.471C76.1193 73.8102 75.8267 74.1823 75.502 74.4674C76.1431 76.1427 76.7821 77.8218 77.421 79.5008C77.8348 80.5881 78.2486 81.6753 78.6629 82.7615ZM94.9042 60.6639C96.5554 64.4797 96.1733 68.6001 93.829 72.0439C93.2924 72.8373 94.5975 73.5638 95.1341 72.7703C97.658 69.0466 98.1151 64.3863 96.3433 60.2541C95.9732 59.3833 94.5302 59.779 94.9042 60.6639ZM91.8305 74.2905L92.242 73.8072C92.8551 73.0682 93.9283 74.1048 93.3151 74.8438L92.9036 75.3271C92.2905 76.0661 91.2173 75.0295 91.8305 74.2905Z" fill="white" fill-opacity="0.15"/>
</svg>
