<?xml version="1.0" encoding="utf-8"?>
<!-- Generator: Adobe Illustrator 22.0.1, SVG Export Plug-In . SVG Version: 6.00 Build 0)  -->
<svg version="1.1" id="Слой_1" xmlns="http://www.w3.org/2000/svg" xmlns:xlink="http://www.w3.org/1999/xlink" x="0px"
     y="0px"
     viewBox="0 0 1024 1024" style="enable-background:new 0 0 1024 1024;" xml:space="preserve">
	<path d="M806.5,320.4l-50.1-10.2c-56.8-9.1-143.1-18-238.4-18c-168.8,0-299.1,28.3-310.7,31c-28.3,5.2-59.3,27.1-73.5,52.9
		c-6.4,10.3-34.7,58-34.7,135.3c0,78.7,29.7,126.4,34.7,135.3c14.2,24.5,46.5,47.7,72.1,52.9c5.2,1.3,139.2,32.2,310.7,32.2
		c82.5,0,157.2-6.4,211.4-14.2l54-9.2c25.8-3.9,42.6-7.7,46.5-9.1c29.7-5.2,59.3-29.7,70.9-58c5.2-9.1,25.8-54.1,25.8-128.9
		c0-75.9-21.9-121-25.8-130l0,0c-11.6-28.3-41.3-52.9-70.9-58C827.1,324.3,819.3,321.8,806.5,320.4v-2.5 M854.2,617
		c0,1.3-1.3,2.5-1.3,2.5c-5.2,11.6-21.9,25.8-33.5,28.3h-1.3c-1.3,0-132.8,29.7-299.1,29.7s-297.7-29.7-300.4-31
		c-12.8-2.5-32.2-16.7-38.6-28.3l-1.3-1.3c0,0-25.8-38.6-25.8-107c0-67,25.8-105.7,25.8-107s1.3-1.3,1.3-2.5
		c6.4-12.8,24.5-25.8,38.6-28.3h1.3c1.3,0,132.8-29.7,300.4-29.7c166.3,0,297.7,29.7,300.4,31c12.8,2.5,29.7,15.5,33.5,27.1
		c0,1.3,1.3,2.5,1.3,3.9c0,0,20.6,37.4,20.6,105.7C876.1,578.2,854.2,617,854.2,617L854.2,617z"/>
    <polygon points="355.6,534.2 332.5,446.8 293.7,446.8 293.7,574.8 317.8,574.8 317.8,474.1 343.1,574.8 368,574.8 393.4,474.1
		393.4,574.8 417.3,574.8 417.3,446.8 378.6,446.8 	"/>
    <path d="M499.7,444.7c-10.4,0-19.6,1.6-27.6,5c-6,2.5-11.5,6.3-16.5,11.6c-5,5.2-9.1,11.1-12,17.5c-3.9,8.8-5.8,19.8-5.8,32.9
		c0,20.4,5.7,36.4,16.9,48c11.2,11.6,26.3,17.4,45.4,17.4c18.8,0,33.9-5.8,45.1-17.5c11.2-11.7,16.9-27.8,16.9-48.5
		c0-20.8-5.7-37.1-17-48.8C533.7,450.4,518.5,444.7,499.7,444.7z M525.3,543.7c-6.5,7.4-15.1,11.1-25.3,11.1s-18.8-3.8-25.4-11.2
		c-6.7-7.4-10.1-18.5-10.1-33c0-14.7,3.3-25.7,9.8-33c6.5-7.3,15.1-11,25.8-11s19.1,3.7,25.7,10.8c6.4,7.2,9.7,18.1,9.7,32.9
		C535.2,525.2,531.9,536.3,525.3,543.7z"/>
    <path d="M665.1,506.8c5.5-2.5,9.9-6.3,13.1-11.2c3.3-5,4.8-10.4,4.8-16.5c0-5.5-1.3-10.6-3.9-15s-5.9-8.1-9.8-10.7
		c-3.9-2.6-8.4-4.4-13.3-5.3c-5-0.9-12.5-1.3-22.7-1.3h-51.1v127.9h43.6c16.5-0.1,26.8-0.4,31.2-0.9c6.9-0.8,12.6-2.8,17.4-6
		c4.7-3.3,8.4-7.7,11.1-13.2c2.8-5.5,4-11.2,4-17c0-7.4-2.1-13.8-6.3-19.3C678.9,513,672.9,509.1,665.1,506.8z M608.1,468.1h14.9
		c12.2,0,19.5,0.1,22,0.4c4.3,0.5,7.6,2,9.7,4.5c2.1,2.5,3.3,5.7,3.3,9.7c0,4.2-1.3,7.4-3.8,9.9s-6,4-10.4,4.5
		c-2.4,0.3-8.7,0.4-18.8,0.4h-17v-29.5H608.1z M659,547.4c-2.4,2.6-5.5,4.4-9.4,5.2c-2.5,0.5-8.4,0.8-17.8,0.8h-23.9V519h20.9
		c11.7,0,19.4,0.6,22.9,1.9c3.5,1.3,6.2,3.1,8.1,5.8c1.9,2.6,2.8,5.9,2.8,9.8C662.7,541,661.4,544.6,659,547.4z"/>
    <rect x="710.4" y="446.8" width="25.8" height="127.9"/>
</svg>
