<?xml version="1.0" encoding="utf-8"?>
<svg version="1.1" id="Слой_1" xmlns="http://www.w3.org/2000/svg" xmlns:xlink="http://www.w3.org/1999/xlink" x="0px"
     y="0px"
     viewBox="0 0 1024 1024" style="enable-background:new 0 0 1024 1024;" xml:space="preserve">
	<path d="M806.5,320.3l-50.1-10.2c-56.8-9.1-143.1-18-238.4-18c-168.8,0-299.1,28.3-310.7,31c-28.3,5.2-59.3,27.1-73.5,52.9
		C127.3,386.2,99,434,99,511.3c0,78.7,29.7,126.4,34.7,135.3c14.2,24.5,46.5,47.7,72.1,52.9c5.2,1.3,139.2,32.2,310.7,32.2
		c82.5,0,157.2-6.4,211.4-14.2l54-9.2c25.8-3.9,42.6-7.7,46.5-9.1c29.7-5.2,59.3-29.7,70.9-58c5.2-9.1,25.8-54.1,25.8-128.9
		c0-75.9-21.9-121-25.8-130l0,0c-11.6-28.3-41.3-52.9-70.9-58C827.1,324.2,819.3,321.7,806.5,320.3v-2.5 M854.2,616.9
		c0,1.3-1.3,2.5-1.3,2.5c-5.2,11.6-21.9,25.8-33.5,28.3h-1.3c-1.3,0-132.8,29.7-299.1,29.7s-297.7-29.7-300.4-31
		c-12.8-2.5-32.2-16.7-38.6-28.3l-1.3-1.3c0,0-25.8-38.6-25.8-107c0-67,25.8-105.7,25.8-107s1.3-1.3,1.3-2.5
		c6.4-12.8,24.5-25.8,38.6-28.3h1.3c1.3,0,132.8-29.7,300.4-29.7c166.3,0,297.7,29.7,300.4,31c12.8,2.5,29.7,15.5,33.5,27.1
		c0,1.3,1.3,2.5,1.3,3.9c0,0,20.6,37.4,20.6,105.7C876.1,578.1,854.2,616.9,854.2,616.9L854.2,616.9z"/>
    <path d="M652.4,519.7c-3.9-5.2-10.5-9.1-18.3-11.8h0c5.2-2.6,10.5-6.5,13.1-11.8s5.2-10.5,5.2-17c0-5.2-1.3-10.5-3.9-15.7
		c-2.6-3.9-6.5-7.8-10.5-10.5c-3.9-2.6-9.1-3.9-13.1-5.2c-5.2-1.3-13.1-1.3-23.5-1.3h-52.3v130.6h44.4c17,0,27.4,0,31.4-1.3
		c6.5-1.3,13.1-2.6,18.3-6.5s9.1-7.8,11.8-13.1c2.6-5.2,3.9-11.8,3.9-17C659,531.5,656.4,524.9,652.4,519.7z M575.4,467.5
		L575.4,467.5l37.9,0c3.9,0,7.8,2.6,10.5,5.2c2.6,2.6,3.9,5.2,3.9,10.5c0,3.9-1.3,7.8-3.9,10.5c-2.6,2.6-6.5,3.9-10.5,5.2h-37.9
		V467.5z M627.6,548.5c-2.6,2.6-5.2,3.9-9.1,5.2c-2.6,0-9.1,1.3-18.3,1.3h-24.8v-35.3h20.9c11.8,0,19.6,0,23.5,1.3
		c3.9,1.3,6.5,2.6,7.8,6.5c1.3,2.6,2.6,6.5,2.6,10.5C631.5,543.2,630.2,545.8,627.6,548.5L627.6,548.5z"/>
    <polygon points="387.2,446.6 413.4,446.6 382,577.2 354.6,577.2 328.5,479.2 302.3,577.2 273.6,577.2 242.2,446.6 269.7,446.6
		289.3,536.7 312.8,446.6 344.1,446.6 367.6,538 387.2,446.6 	"/>
    <polygon points="453.9,555 527,555 527,577.2 427.7,577.2 427.7,446.6 524.4,446.6 524.4,468.8 453.9,468.8 453.9,497.5
		519.2,497.5 519.2,519.7 453.9,519.7 453.9,555 	"/>
    <path d="M773.9,459.6c-5.2-5.2-10.5-9.1-18.3-11.8l0,0c-5.2-1.3-15.7-1.3-31.4-1.3h-41.8v130.6h26.1v-49.6h17
		c11.8,0,20.9,0,27.4-1.3c5.2-1.3,9.1-2.6,13.1-6.5c3.9-2.6,7.8-7.8,11.8-13.1c2.6-5.2,3.9-11.8,3.9-20.9
		C781.8,475.3,779.1,467.5,773.9,459.6z M751.7,497.5L751.7,497.5c-2.6,2.6-5.2,5.2-7.8,6.5c-3.9,1.3-10.5,2.6-20.9,2.6h-14.4v-36.6
		h13.1c9.1,0,15.7,0,19.6,1.3s7.8,2.6,10.5,5.2c2.6,2.6,3.9,6.5,3.9,11.8C754.3,491,753,493.6,751.7,497.5z"/>
</svg>
